STARTFONT 2.1
COMMENT
COMMENT Converted from OpenType font "..\ttf\ITC Avant Garde Gothic Medium.otf" by "otf2bdf.exe 3.0".
COMMENT
FONT -FreeType-ITC Avant Garde Gothic-Medium-R-Normal--40-290-100-100-P-187-ISO10646-1
SIZE 29 100 100
FONTBOUNDINGBOX 51 50 -4 -11
STARTPROPERTIES 19
FOUNDRY "FreeType"
FAMILY_NAME "ITC Avant Garde Gothic"
WEIGHT_NAME "Medium"
SLANT "R"
SETWIDTH_NAME "Normal"
ADD_STYLE_NAME ""
PIXEL_SIZE 40
POINT_SIZE 290
RESOLUTION_X 100
RESOLUTION_Y 100
SPACING "P"
AVERAGE_WIDTH 187
CHARSET_REGISTRY "ISO10646"
CHARSET_ENCODING "1"
FONT_ASCENT 39
FONT_DESCENT 10
COPYRIGHT "Copyright (c) 1991 Adobe Systems Incorporated.  All Rights Reserved.ITC Avant Garde Gothic is a registered trademark of International Typeface Corporation."
_OTF_FONTFILE "..\ttf\ITC Avant Garde Gothic Medium.otf"
_OTF_PSNAME "AvantGarde-Medium"
ENDPROPERTIES
CHARS 228
STARTCHAR 0020
ENCODING 32
SWIDTH 273 0
DWIDTH 11 0
BBX 0 0 0 0
BITMAP
ENDCHAR
STARTCHAR 0021
ENCODING 33
SWIDTH 273 0
DWIDTH 11 0
BBX 4 29 3 0
BITMAP
F0
F0
F0
F0
F0
F0
F0
F0
F0
F0
F0
F0
F0
F0
F0
F0
F0
F0
F0
F0
F0
F0
00
00
F0
F0
F0
F0
F0
ENDCHAR
STARTCHAR 0022
ENCODING 34
SWIDTH 322 0
DWIDTH 13 0
BBX 11 12 1 17
BITMAP
F1E0
F1E0
F1E0
F1E0
F1E0
F1E0
F1E0
F1E0
F1E0
F1E0
F1E0
F1E0
ENDCHAR
STARTCHAR 0023
ENCODING 35
SWIDTH 546 0
DWIDTH 22 0
BBX 20 28 1 1
BITMAP
03C3C0
03C3C0
03C380
03C380
038380
038780
038780
078780
7FFFF0
7FFFF0
7FFFF0
7FFFF0
070700
070F00
0F0F00
0F0F00
FFFFE0
FFFFE0
FFFFE0
FFFFE0
0E1E00
1E1E00
1E1E00
1E1E00
1E1C00
1C1C00
1C1C00
1C3C00
ENDCHAR
STARTCHAR 0024
ENCODING 36
SWIDTH 546 0
DWIDTH 22 0
BBX 16 36 3 -3
BITMAP
03C0
03C0
03C0
03C0
03C0
0FF8
1FFC
3FFE
3E3E
7C1F
780F
7800
7800
7800
7E00
3F80
1FF0
0FFC
03FE
007E
001F
000F
000F
000F
F00F
F00F
F81F
7C3E
7FFE
3FFC
1FF8
03C0
03C0
03C0
03C0
03C0
ENDCHAR
STARTCHAR 0025
ENCODING 37
SWIDTH 844 0
DWIDTH 34 0
BBX 29 31 2 -1
BITMAP
07C00100
1FF00600
3FF80600
7FFC0C00
7C7E0800
F01E1800
F01E1000
F01E3000
F81E6000
7C7E6000
7FFCC000
3FF8C000
1FF18000
07C18000
00030000
00060000
00060F80
000C3FC0
000C7FE0
0018FFF0
0038F0F0
0031F0F8
0071E078
0061E078
00E1E078
00C1F078
01C0F8F0
0380FFF0
03007FE0
07003FC0
00000F00
ENDCHAR
STARTCHAR 0026
ENCODING 38
SWIDTH 695 0
DWIDTH 28 0
BBX 25 31 1 -1
BITMAP
00F80000
03FE0000
07FF0000
0FFF8000
0F8F8000
1F07C000
1E03C000
1E03C000
1E03C000
1F07C000
0F0F8000
0F9F8000
07FF0F80
03FE1F00
0FFC1F00
1FFC1E00
3FFE3E00
7C3F3C00
781FFC00
F80FF800
F007F800
F003F000
F001F800
F001FC00
F803FE00
7807FE00
7E0F9F00
3FFF8F80
1FFF0780
0FFC0300
03F00100
ENDCHAR
STARTCHAR 0027
ENCODING 39
SWIDTH 223 0
DWIDTH 9 0
BBX 4 12 2 17
BITMAP
F0
F0
F0
F0
F0
F0
F0
F0
F0
F0
F0
F0
ENDCHAR
STARTCHAR 0028
ENCODING 40
SWIDTH 397 0
DWIDTH 16 0
BBX 12 39 2 -10
BITMAP
0060
00E0
01E0
03E0
07E0
0FC0
0F80
1F00
1E00
3E00
3C00
7C00
7800
7800
F800
F000
F000
F000
F000
F000
F000
F000
F000
F800
7800
7800
7C00
3C00
3E00
3E00
1F00
0F80
0FC0
07E0
03F0
01F0
00F0
0070
0030
ENDCHAR
STARTCHAR 0029
ENCODING 41
SWIDTH 397 0
DWIDTH 16 0
BBX 12 40 2 -11
BITMAP
8000
E000
F000
F800
FC00
7E00
3F00
1F00
0F80
0780
07C0
03C0
03E0
01E0
01E0
01F0
00F0
00F0
00F0
00F0
00F0
00F0
00F0
00F0
00F0
01E0
01E0
01E0
03C0
03C0
07C0
0F80
1F00
3F00
7E00
7C00
7800
7000
6000
4000
ENDCHAR
STARTCHAR 002A
ENCODING 42
SWIDTH 571 0
DWIDTH 23 0
BBX 15 14 4 14
BITMAP
0380
0380
0380
0380
638C
FFBE
FFFE
1FF0
07C0
0FE0
0EE0
1C70
3C78
1830
ENDCHAR
STARTCHAR 002B
ENCODING 43
SWIDTH 595 0
DWIDTH 24 0
BBX 20 20 2 0
BITMAP
00F000
00F000
00F000
00F000
00F000
00F000
00F000
00F000
FFFFF0
FFFFF0
FFFFF0
FFFFF0
00F000
00F000
00F000
00F000
00F000
00F000
00F000
00F000
ENDCHAR
STARTCHAR 002C
ENCODING 44
SWIDTH 273 0
DWIDTH 11 0
BBX 4 10 3 -6
BITMAP
F0
F0
F0
F0
F0
70
70
F0
E0
C0
ENDCHAR
STARTCHAR 002D
ENCODING 45
SWIDTH 273 0
DWIDTH 11 0
BBX 11 4 0 9
BITMAP
FFE0
FFE0
FFE0
FFE0
ENDCHAR
STARTCHAR 002E
ENCODING 46
SWIDTH 273 0
DWIDTH 11 0
BBX 4 5 3 0
BITMAP
F0
F0
F0
F0
F0
ENDCHAR
STARTCHAR 002F
ENCODING 47
SWIDTH 496 0
DWIDTH 20 0
BBX 16 33 2 -5
BITMAP
001F
001E
001E
003E
003C
003C
007C
0078
0078
00F8
00F0
00F0
01F0
01E0
01E0
03E0
03C0
03C0
07C0
0780
0780
0F80
0F00
1F00
1F00
1E00
3E00
3E00
3C00
7C00
7C00
7800
F800
ENDCHAR
STARTCHAR 0030
ENCODING 48
SWIDTH 546 0
DWIDTH 22 0
BBX 18 31 2 -1
BITMAP
03F000
0FFC00
1FFE00
3FFF00
7E1F80
7C0780
7807C0
F003C0
F003C0
F003C0
F003C0
F003C0
F003C0
F003C0
F003C0
F003C0
F003C0
F003C0
F003C0
F003C0
F003C0
F003C0
F003C0
F003C0
F807C0
7C0780
7E1F80
3FFF00
1FFE00
0FFC00
03F000
ENDCHAR
STARTCHAR 0031
ENCODING 49
SWIDTH 546 0
DWIDTH 22 0
BBX 8 29 6 0
BITMAP
FF
FF
FF
FF
0F
0F
0F
0F
0F
0F
0F
0F
0F
0F
0F
0F
0F
0F
0F
0F
0F
0F
0F
0F
0F
0F
0F
0F
0F
ENDCHAR
STARTCHAR 0032
ENCODING 50
SWIDTH 546 0
DWIDTH 22 0
BBX 19 30 1 0
BITMAP
01F800
07FE00
1FFF00
3FFF80
3E0FC0
7C07C0
7803E0
F001E0
F001E0
F001E0
F001E0
0001E0
0003E0
0003C0
0007C0
000F80
001F00
007E00
00FC00
01F800
03F000
07E000
0FC000
1F8000
3F0000
7E0000
FFFFE0
FFFFE0
FFFFE0
FFFFE0
ENDCHAR
STARTCHAR 0033
ENCODING 51
SWIDTH 546 0
DWIDTH 22 0
BBX 18 31 1 -1
BITMAP
01F000
07FC00
0FFE00
1FFF00
1E1F00
3C0F80
3C0780
380780
000780
000780
000F80
001F00
01FF00
01FE00
01FE00
01FF00
001F80
000F80
0007C0
0003C0
0003C0
0003C0
F003C0
F003C0
F807C0
780780
7E1F80
3FFF00
1FFE00
0FFC00
03F000
ENDCHAR
STARTCHAR 0034
ENCODING 52
SWIDTH 546 0
DWIDTH 22 0
BBX 20 29 1 0
BITMAP
000780
000F80
001F80
001F80
003F80
007F80
007F80
00F780
01F780
01E780
03C780
07C780
078780
0F8780
1F0780
1E0780
3E0780
7C0780
780780
F80780
FFFFF0
FFFFF0
FFFFF0
FFFFF0
000780
000780
000780
000780
000780
ENDCHAR
STARTCHAR 0035
ENCODING 53
SWIDTH 546 0
DWIDTH 22 0
BBX 20 30 1 -1
BITMAP
0FFF80
0FFF80
1FFF80
1FFF80
1E0000
1E0000
1E0000
3C0000
3DF800
3FFF00
3FFF80
3FFFC0
3F0FC0
7C03E0
3801E0
0001F0
0000F0
0000F0
0000F0
0000F0
F000F0
F800F0
F801F0
7C01E0
7C03E0
3F0FC0
1FFF80
1FFF00
07FE00
01F800
ENDCHAR
STARTCHAR 0036
ENCODING 54
SWIDTH 546 0
DWIDTH 22 0
BBX 20 30 1 -1
BITMAP
003E00
007C00
007800
00F800
01F000
01E000
03E000
03C000
078000
0FFC00
0FFF00
1FFF80
3FFFC0
3F0FE0
7C03E0
7801E0
7801F0
F000F0
F000F0
F000F0
F000F0
F000F0
F801F0
7801E0
7C03E0
3F0FC0
1FFF80
1FFF80
07FE00
01F800
ENDCHAR
STARTCHAR 0037
ENCODING 55
SWIDTH 546 0
DWIDTH 22 0
BBX 17 29 2 0
BITMAP
FFFF80
FFFF80
FFFF80
FFFF80
000780
000F00
000F00
001E00
001E00
001E00
003C00
003C00
007800
007800
00F800
00F000
01F000
01E000
01E000
03C000
03C000
07C000
078000
0F8000
0F0000
0F0000
1F0000
1E0000
3E0000
ENDCHAR
STARTCHAR 0038
ENCODING 56
SWIDTH 546 0
DWIDTH 22 0
BBX 18 31 2 -1
BITMAP
03F000
07FC00
1FFE00
1FFF00
3E1F00
7C0F80
780780
780780
780780
780780
7C0F80
3E1F00
3FFF00
1FFE00
1FFE00
3FFF00
7E1F80
7C0F80
F807C0
F003C0
F003C0
F003C0
F003C0
F003C0
F807C0
7C0F80
7E1F80
3FFF00
1FFE00
0FFC00
03F000
ENDCHAR
STARTCHAR 0039
ENCODING 57
SWIDTH 546 0
DWIDTH 22 0
BBX 20 30 1 0
BITMAP
01F800
07FE00
1FFF80
3FFFC0
3F0FC0
7C03E0
7801E0
F801F0
F000F0
F000F0
F000F0
F000F0
F801F0
F801E0
7C03E0
7F0FE0
3FFFC0
1FFF80
0FFF80
03FF00
001F00
003E00
007C00
007C00
00F800
00F000
01F000
03E000
03E000
07C000
ENDCHAR
STARTCHAR 003A
ENCODING 58
SWIDTH 273 0
DWIDTH 11 0
BBX 4 22 3 0
BITMAP
F0
F0
F0
F0
F0
00
00
00
00
00
00
00
00
00
00
00
00
F0
F0
F0
F0
F0
ENDCHAR
STARTCHAR 003B
ENCODING 59
SWIDTH 273 0
DWIDTH 11 0
BBX 4 27 3 -6
BITMAP
F0
F0
F0
F0
F0
00
00
00
00
00
00
00
00
00
00
00
00
F0
F0
F0
F0
F0
70
70
F0
E0
C0
ENDCHAR
STARTCHAR 003C
ENCODING 60
SWIDTH 595 0
DWIDTH 24 0
BBX 20 20 2 0
BITMAP
000030
0000F0
0007F0
001FF0
007FC0
03FF00
0FF800
3FE000
FF8000
FC0000
FE0000
FF8000
3FE000
0FFC00
01FF00
007FC0
001FF0
0007F0
0000F0
000030
ENDCHAR
STARTCHAR 003D
ENCODING 61
SWIDTH 595 0
DWIDTH 24 0
BBX 20 12 2 4
BITMAP
FFFFF0
FFFFF0
FFFFF0
FFFFF0
000000
000000
000000
000000
FFFFF0
FFFFF0
FFFFF0
FFFFF0
ENDCHAR
STARTCHAR 003E
ENCODING 62
SWIDTH 595 0
DWIDTH 24 0
BBX 20 21 2 0
BITMAP
800000
E00000
F80000
FE0000
FFC000
1FF000
07FC00
01FF80
003FE0
000FF0
0003F0
0007F0
003FF0
00FF80
03FE00
1FF800
7FC000
FF0000
FC0000
E00000
800000
ENDCHAR
STARTCHAR 003F
ENCODING 63
SWIDTH 521 0
DWIDTH 21 0
BBX 18 30 1 0
BITMAP
03F000
0FFC00
1FFE00
3FFF00
7E1F80
7C0780
F807C0
F003C0
F003C0
0003C0
0003C0
0007C0
000F80
001F80
003F00
007E00
007C00
00F800
00F000
01F000
01E000
01E000
000000
000000
000000
01E000
01E000
01E000
01E000
01E000
ENDCHAR
STARTCHAR 0040
ENCODING 64
SWIDTH 769 0
DWIDTH 31 0
BBX 29 31 0 -1
BITMAP
001FF000
00FFFC00
01FFFF00
07F01F80
0F8007C0
1F0001E0
1E0000E0
3C0000F0
780F8070
703FEE78
707FFE38
F0787E38
E0F03C38
E0E01C38
E1C01C38
E1C01C38
E1C01C38
E1C01830
E1C03870
F1E07870
70F0F8E0
70FFFFE0
787FDFC0
3C1F0F00
1C000000
1F000000
0F8000C0
07F007C0
01FFFFC0
00FFFF00
001FF000
ENDCHAR
STARTCHAR 0041
ENCODING 65
SWIDTH 695 0
DWIDTH 28 0
BBX 26 29 1 0
BITMAP
001E0000
001F0000
003F0000
003F0000
007F8000
007F8000
007F8000
00F3C000
00F3C000
01F3E000
01E1E000
01E1E000
03C0F000
03C0F000
03C0F000
07807800
07FFF800
0FFFFC00
0FFFFC00
0FFFFC00
1F003E00
1E001E00
3E001F00
3C001F00
3C000F00
7C000F80
78000780
78000780
F80007C0
ENDCHAR
STARTCHAR 0042
ENCODING 66
SWIDTH 571 0
DWIDTH 23 0
BBX 18 29 3 0
BITMAP
FFE000
FFF800
FFFC00
FFFE00
F03E00
F01F00
F00F00
F00F00
F00F00
F00F00
F01F00
F03E00
FFFE00
FFFC00
FFFE00
FFFF00
F01F80
F00780
F007C0
F003C0
F003C0
F003C0
F003C0
F007C0
F01F80
FFFF00
FFFF00
FFFC00
FFF000
ENDCHAR
STARTCHAR 0043
ENCODING 67
SWIDTH 794 0
DWIDTH 32 0
BBX 28 31 2 -1
BITMAP
001FE000
00FFF800
01FFFE00
07FFFF80
0FF03FC0
1F800FC0
1F0007E0
3E0003F0
3C000000
7C000000
78000000
F8000000
F0000000
F0000000
F0000000
F0000000
F0000000
F0000000
F0000000
78000000
78000000
7C000000
3C000000
3E0003F0
1F0007E0
0FC00FC0
0FF03F80
07FFFF00
01FFFE00
00FFF800
001FE000
ENDCHAR
STARTCHAR 0044
ENCODING 68
SWIDTH 720 0
DWIDTH 29 0
BBX 24 29 3 0
BITMAP
FFFC00
FFFF80
FFFFC0
FFFFE0
F007F0
F001F8
F0007C
F0007C
F0003E
F0001E
F0001F
F0000F
F0000F
F0000F
F0000F
F0000F
F0000F
F0000F
F0001F
F0001E
F0001E
F0003E
F0007C
F000F8
F007F8
FFFFF0
FFFFC0
FFFF80
FFFC00
ENDCHAR
STARTCHAR 0045
ENCODING 69
SWIDTH 521 0
DWIDTH 21 0
BBX 15 29 3 0
BITMAP
FFFE
FFFE
FFFE
FFFE
F000
F000
F000
F000
F000
F000
F000
F000
FFFE
FFFE
FFFE
FFFE
F000
F000
F000
F000
F000
F000
F000
F000
F000
FFFE
FFFE
FFFE
FFFE
ENDCHAR
STARTCHAR 0046
ENCODING 70
SWIDTH 471 0
DWIDTH 19 0
BBX 15 29 3 0
BITMAP
FFFE
FFFE
FFFE
FFFE
F000
F000
F000
F000
F000
F000
F000
F000
FFFE
FFFE
FFFE
FFFE
F000
F000
F000
F000
F000
F000
F000
F000
F000
F000
F000
F000
F000
ENDCHAR
STARTCHAR 0047
ENCODING 71
SWIDTH 819 0
DWIDTH 33 0
BBX 30 31 2 -1
BITMAP
001FC000
00FFF800
01FFFE00
07FFFF00
0FF03F80
1F800FC0
1F0007E0
3E0003F0
7C000000
78000000
78000000
F8000000
F0000000
F0000000
F0000000
F01FFFFC
F01FFFFC
F01FFFFC
F81FFFF8
78000078
780000F8
7C0000F8
3E0001F0
3E0003F0
1F0007E0
0FC00FC0
0FF03F80
07FFFF00
01FFFE00
00FFF800
001FC000
ENDCHAR
STARTCHAR 0048
ENCODING 72
SWIDTH 670 0
DWIDTH 27 0
BBX 20 29 3 0
BITMAP
F000F0
F000F0
F000F0
F000F0
F000F0
F000F0
F000F0
F000F0
F000F0
F000F0
F000F0
F000F0
FFFFF0
FFFFF0
FFFFF0
FFFFF0
F000F0
F000F0
F000F0
F000F0
F000F0
F000F0
F000F0
F000F0
F000F0
F000F0
F000F0
F000F0
F000F0
ENDCHAR
STARTCHAR 0049
ENCODING 73
SWIDTH 248 0
DWIDTH 10 0
BBX 4 29 3 0
BITMAP
F0
F0
F0
F0
F0
F0
F0
F0
F0
F0
F0
F0
F0
F0
F0
F0
F0
F0
F0
F0
F0
F0
F0
F0
F0
F0
F0
F0
F0
ENDCHAR
STARTCHAR 004A
ENCODING 74
SWIDTH 496 0
DWIDTH 20 0
BBX 16 30 0 -1
BITMAP
000F
000F
000F
000F
000F
000F
000F
000F
000F
000F
000F
000F
000F
000F
000F
000F
000F
000F
000F
000F
000F
000F
000F
000F
F81F
7C3E
7FFE
3FFC
1FF8
07E0
ENDCHAR
STARTCHAR 004B
ENCODING 75
SWIDTH 620 0
DWIDTH 25 0
BBX 20 29 4 0
BITMAP
F001F0
F003E0
F007C0
F00FC0
F00F80
F01F00
F03E00
F07C00
F07C00
F0F800
F1F000
F3E000
F3C000
F7C000
FF8000
F7C000
F3E000
F3E000
F1F000
F0F800
F07C00
F07E00
F03E00
F01F00
F00F80
F007C0
F007C0
F003E0
F001F0
ENDCHAR
STARTCHAR 004C
ENCODING 76
SWIDTH 446 0
DWIDTH 18 0
BBX 14 29 3 0
BITMAP
F000
F000
F000
F000
F000
F000
F000
F000
F000
F000
F000
F000
F000
F000
F000
F000
F000
F000
F000
F000
F000
F000
F000
F000
F000
FFFC
FFFC
FFFC
FFFC
ENDCHAR
STARTCHAR 004D
ENCODING 77
SWIDTH 943 0
DWIDTH 38 0
BBX 31 29 3 0
BITMAP
FE0000FE
FE0000FE
FF0001FE
FF0001FE
FF0001FE
FF8003DE
F78003DE
F7C007DE
F3C0079E
F3C0079E
F1E00F1E
F1E00F1E
F1F01F1E
F0F01E1E
F0F01E1E
F0783C1E
F0783C1E
F07C7C1E
F03C781E
F03C781E
F01EF01E
F01EF01E
F01FE01E
F00FE01E
F00FE01E
F007C01E
F007C01E
F003801E
F003801E
ENDCHAR
STARTCHAR 004E
ENCODING 78
SWIDTH 744 0
DWIDTH 30 0
BBX 23 29 3 0
BITMAP
F8001E
F8001E
FC001E
FE001E
FE001E
FF001E
FF801E
F7801E
F7C01E
F3E01E
F1E01E
F1F01E
F0F81E
F0781E
F07C1E
F03E1E
F01E1E
F01F1E
F00F9E
F0079E
F007DE
F003FE
F001FE
F001FE
F000FE
F0007E
F0007E
F0003E
F0003E
ENDCHAR
STARTCHAR 004F
ENCODING 79
SWIDTH 844 0
DWIDTH 34 0
BBX 30 31 2 -1
BITMAP
001FE000
007FFC00
01FFFE00
03FFFF80
0FF03FC0
0F8007E0
1F0003E0
3E0001F0
3C0000F0
7C0000F8
78000078
7800007C
F000003C
F000003C
F000003C
F000003C
F000003C
F000003C
F000003C
7800007C
78000078
7C0000F8
3C0000F0
3E0001F0
1F0003E0
0FC007C0
0FF03FC0
03FFFF00
01FFFE00
007FF800
001FE000
ENDCHAR
STARTCHAR 0050
ENCODING 80
SWIDTH 571 0
DWIDTH 23 0
BBX 18 29 3 0
BITMAP
FFF000
FFFC00
FFFF00
FFFF80
F01F80
F007C0
F003C0
F003C0
F003C0
F003C0
F003C0
F007C0
F01F80
FFFF80
FFFF00
FFFC00
FFF000
F00000
F00000
F00000
F00000
F00000
F00000
F00000
F00000
F00000
F00000
F00000
F00000
ENDCHAR
STARTCHAR 0051
ENCODING 81
SWIDTH 844 0
DWIDTH 34 0
BBX 30 31 2 -1
BITMAP
001FC000
00FFF800
03FFFE00
07FFFF00
0FE03F80
1F800FC0
3F0007E0
3E0003E0
7C0001F0
780000F0
780000F0
F80000F8
F0000078
F0000078
F0000078
F0000078
F0000078
F3F80078
FFFF0078
7FFFC0F0
7FFFE0F0
7E07F9F0
3E01FDE0
3E00FFE0
1F003FC0
0FC01FC0
0FF07FE0
07FFFFFC
01FFFFFC
00FFF8FC
001FC03C
ENDCHAR
STARTCHAR 0052
ENCODING 82
SWIDTH 595 0
DWIDTH 24 0
BBX 19 29 3 0
BITMAP
FFF800
FFFE00
FFFF00
FFFF80
F00FC0
F007C0
F003E0
F001E0
F001E0
F001E0
F001E0
F001E0
F003E0
F007C0
F01FC0
FFFF80
FFFF00
F7FE00
F3E000
F1F000
F1F000
F0F800
F07C00
F03E00
F03E00
F01F00
F00F80
F007C0
F007C0
ENDCHAR
STARTCHAR 0053
ENCODING 83
SWIDTH 496 0
DWIDTH 20 0
BBX 17 31 1 -1
BITMAP
03F000
0FFC00
1FFE00
3FFF00
3E1F00
7C0F80
780780
780780
780000
780000
7C0000
3E0000
3FC000
1FF000
0FFC00
07FE00
01FF00
003F00
001F80
000F80
000780
000780
F00780
F00780
F80780
780F00
7E1F00
3FFE00
1FFE00
0FFC00
03F000
ENDCHAR
STARTCHAR 0054
ENCODING 84
SWIDTH 397 0
DWIDTH 16 0
BBX 16 29 0 0
BITMAP
FFFF
FFFF
FFFF
FFFF
03C0
03C0
03C0
03C0
03C0
03C0
03C0
03C0
03C0
03C0
03C0
03C0
03C0
03C0
03C0
03C0
03C0
03C0
03C0
03C0
03C0
03C0
03C0
03C0
03C0
ENDCHAR
STARTCHAR 0055
ENCODING 85
SWIDTH 645 0
DWIDTH 26 0
BBX 19 30 3 -1
BITMAP
F001E0
F001E0
F001E0
F001E0
F001E0
F001E0
F001E0
F001E0
F001E0
F001E0
F001E0
F001E0
F001E0
F001E0
F001E0
F001E0
F001E0
F001E0
F001E0
F001E0
F001E0
F001E0
F001E0
F803E0
7C07C0
7E0FC0
3FFF80
1FFF00
0FFE00
03F800
ENDCHAR
STARTCHAR 0056
ENCODING 86
SWIDTH 695 0
DWIDTH 28 0
BBX 26 29 0 0
BITMAP
F80007C0
78000780
7C000780
7C000F80
3C000F00
3E001F00
1E001E00
1F001E00
1F003E00
0F003C00
0F807C00
07807800
07807800
07C0F800
03C0F000
03E1F000
01E1E000
01E1E000
01F3E000
00F3C000
00FBC000
007F8000
007F8000
007F8000
003F0000
003F0000
001E0000
001E0000
000E0000
ENDCHAR
STARTCHAR 0057
ENCODING 87
SWIDTH 918 0
DWIDTH 37 0
BBX 35 29 1 0
BITMAP
F800E003E0
F800F003E0
7801F003C0
7801F003C0
7C01F007C0
3C01F80780
3C03F80780
3C03F80780
3E03F80F80
1E07BC0F00
1E07BC0F00
1E07BC0F00
0F071C1E00
0F0F1E1E00
0F0F1E1E00
0F8F1E3E00
078E0E3C00
079E0F3C00
079E0F3C00
03DE0F7800
03DC077800
03FC07F800
03FC07F800
01FC07F000
01F803F000
01F803F000
00F803E000
00F003E000
00F001E000
ENDCHAR
STARTCHAR 0058
ENCODING 88
SWIDTH 645 0
DWIDTH 26 0
BBX 25 29 0 0
BITMAP
FC000F80
7C001F00
3E003E00
3F003E00
1F007C00
0F80F800
0FC1F800
07C1F000
03E3E000
03F7C000
01F7C000
00FF8000
00FF0000
007F0000
003E0000
007F0000
00FF8000
00FF8000
01F7C000
03E7E000
03E3E000
07C1F000
0F81F800
0F80F800
1F007C00
3E007E00
3E003E00
7C001F00
F8001F80
ENDCHAR
STARTCHAR 0059
ENCODING 89
SWIDTH 595 0
DWIDTH 24 0
BBX 22 29 1 0
BITMAP
F8007C
780078
7C00F8
3C00F0
3E01F0
1E01E0
1F03E0
0F03C0
0F87C0
078780
07CF80
03CF00
03EF00
01FE00
01FE00
00FC00
00FC00
00F800
007800
007800
007800
007800
007800
007800
007800
007800
007800
007800
007800
ENDCHAR
STARTCHAR 005A
ENCODING 90
SWIDTH 471 0
DWIDTH 19 0
BBX 18 29 0 0
BITMAP
7FFF80
7FFF80
7FFF80
7FFF80
000F80
000F80
001F00
001E00
003E00
007C00
007C00
00F800
00F000
01F000
03E000
03E000
07C000
078000
0F8000
1F0000
1F0000
3E0000
3C0000
7C0000
F80000
FFFFC0
FFFFC0
FFFFC0
FFFFC0
ENDCHAR
STARTCHAR 005B
ENCODING 91
SWIDTH 397 0
DWIDTH 16 0
BBX 8 40 5 -11
BITMAP
01
07
0F
1F
3F
7E
7C
78
F8
F0
F0
F0
F0
F0
F0
F0
F0
F0
F0
F0
F0
F0
F0
F0
F0
F0
F0
F0
F0
F0
F0
F8
F8
7C
7E
3F
1F
0F
07
03
ENDCHAR
STARTCHAR 005C
ENCODING 92
SWIDTH 496 0
DWIDTH 20 0
BBX 16 33 2 -5
BITMAP
F800
7800
7C00
7C00
3C00
3E00
3E00
1E00
1F00
1F00
0F00
0F80
0F80
0780
07C0
07C0
03C0
03E0
03E0
01E0
01F0
01F0
00F0
00F8
00F8
0078
007C
007C
003C
003E
001E
001E
001F
ENDCHAR
STARTCHAR 005D
ENCODING 93
SWIDTH 397 0
DWIDTH 16 0
BBX 8 40 3 -11
BITMAP
80
E0
F0
F8
FC
7E
3E
1E
1F
0F
0F
0F
0F
0F
0F
0F
0F
0F
0F
0F
0F
0F
0F
0F
0F
0F
0F
0F
0F
0F
0F
0F
1F
3E
7E
FC
F8
F0
E0
C0
ENDCHAR
STARTCHAR 005E
ENCODING 94
SWIDTH 595 0
DWIDTH 24 0
BBX 18 15 3 13
BITMAP
01E000
03E000
03F000
07F000
07F800
0F7800
0F3C00
1E3C00
1E1E00
3C1E00
3C0F00
780F00
780780
F00780
F007C0
ENDCHAR
STARTCHAR 005F
ENCODING 95
SWIDTH 496 0
DWIDTH 20 0
BBX 20 2 0 -5
BITMAP
FFFFF0
FFFFF0
ENDCHAR
STARTCHAR 0060
ENCODING 96
SWIDTH 546 0
DWIDTH 22 0
BBX 10 8 5 25
BITMAP
6000
7800
FE00
7F80
1FC0
07C0
0180
0080
ENDCHAR
STARTCHAR 0061
ENCODING 97
SWIDTH 695 0
DWIDTH 28 0
BBX 23 24 2 -1
BITMAP
00FE00
03FF9E
0FFFDE
1FFFFE
3F83FE
3E00FE
7C007E
78003E
78003E
F0001E
F0001E
F0001E
F0001E
F0001E
F0001E
F8003E
78003E
7C007E
3E00FE
3F83FE
1FFFDE
0FFFDE
03FF1E
00FC00
ENDCHAR
STARTCHAR 0062
ENCODING 98
SWIDTH 695 0
DWIDTH 28 0
BBX 23 30 3 -1
BITMAP
F00000
F00000
F00000
F00000
F00000
F00000
F07E00
F1FF80
F7FFE0
FFFFF0
FF83F8
FE00F8
FC007C
F8003C
F8003E
F0001E
F0001E
F0001E
F0001E
F0001E
F0001E
F8003E
F8003C
FC007C
FE00F8
FF83F8
FFFFF0
F7FFE0
F1FF80
007E00
ENDCHAR
STARTCHAR 0063
ENCODING 99
SWIDTH 620 0
DWIDTH 25 0
BBX 22 24 2 -1
BITMAP
00FE00
03FF80
0FFFC0
1FFFE0
3F03F0
3E01F8
7C00F8
78007C
780000
F00000
F00000
F00000
F00000
F00000
F00000
F80000
78007C
7C00F8
3E01F8
3F83F0
1FFFE0
0FFFC0
03FF80
00FC00
ENDCHAR
STARTCHAR 0064
ENCODING 100
SWIDTH 695 0
DWIDTH 28 0
BBX 22 30 2 -1
BITMAP
00003C
00003C
00003C
00003C
00003C
00003C
00FC3C
07FF3C
0FFFBC
1FFFFC
3F83FC
3E01FC
7C00FC
78007C
78007C
F0003C
F0003C
F0003C
F0003C
F0003C
F0003C
F8007C
78007C
7C00FC
3E01FC
3F87FC
1FFFFC
0FFFBC
07FF3C
00FC00
ENDCHAR
STARTCHAR 0065
ENCODING 101
SWIDTH 645 0
DWIDTH 26 0
BBX 22 24 2 -1
BITMAP
00FC00
03FF80
0FFFC0
1FFFE0
3F03F0
3C00F8
780078
780078
F0003C
F0003C
FFFFFC
FFFFFC
FFFFFC
FFFFFC
F00000
780000
780078
7C0078
3E00F0
1F83F0
1FFFE0
0FFFC0
03FF00
00FC00
ENDCHAR
STARTCHAR 0066
ENCODING 102
SWIDTH 273 0
DWIDTH 11 0
BBX 10 29 1 0
BITMAP
03C0
0FC0
1FC0
1FC0
3E00
3C00
3C00
FFC0
FFC0
FFC0
FFC0
3C00
3C00
3C00
3C00
3C00
3C00
3C00
3C00
3C00
3C00
3C00
3C00
3C00
3C00
3C00
3C00
3C00
3C00
ENDCHAR
STARTCHAR 0067
ENCODING 103
SWIDTH 695 0
DWIDTH 28 0
BBX 23 32 2 -9
BITMAP
00FE00
03FF9E
0FFFDE
1FFFFE
1F83FE
3E00FE
7C007E
78003E
78003E
F0001E
F0001E
F0001E
F0001E
F0001E
F0001E
78003E
78003E
7C007E
3E00FE
1F83FE
1FFFFE
07FFDE
03FF9E
00FE1E
00003C
7C003C
7E007C
3F81F8
1FFFF0
0FFFE0
07FFC0
00FE00
ENDCHAR
STARTCHAR 0068
ENCODING 104
SWIDTH 620 0
DWIDTH 25 0
BBX 19 29 3 0
BITMAP
F00000
F00000
F00000
F00000
F00000
F00000
F1F800
F3FE00
F7FF80
FFFF80
FE0FC0
FC07C0
F803E0
F801E0
F001E0
F001E0
F001E0
F001E0
F001E0
F001E0
F001E0
F001E0
F001E0
F001E0
F001E0
F001E0
F001E0
F001E0
F001E0
ENDCHAR
STARTCHAR 0069
ENCODING 105
SWIDTH 248 0
DWIDTH 10 0
BBX 4 29 3 0
BITMAP
F0
F0
F0
F0
F0
00
00
F0
F0
F0
F0
F0
F0
F0
F0
F0
F0
F0
F0
F0
F0
F0
F0
F0
F0
F0
F0
F0
F0
ENDCHAR
STARTCHAR 006A
ENCODING 106
SWIDTH 248 0
DWIDTH 10 0
BBX 7 38 0 -9
BITMAP
1E
1E
1E
1E
1E
00
00
1E
1E
1E
1E
1E
1E
1E
1E
1E
1E
1E
1E
1E
1E
1E
1E
1E
1E
1E
1E
1E
1E
1E
1E
1E
3E
FC
FC
F8
F0
80
ENDCHAR
STARTCHAR 006B
ENCODING 107
SWIDTH 546 0
DWIDTH 22 0
BBX 18 29 3 0
BITMAP
F00000
F00000
F00000
F00000
F00000
F00000
F00000
F00F00
F01F00
F03E00
F07C00
F07800
F0F800
F1F000
F1E000
F3C000
F7C000
FF8000
FF8000
F7C000
F3E000
F1F000
F0F800
F0F800
F07C00
F03E00
F01F00
F00F80
F00FC0
ENDCHAR
STARTCHAR 006C
ENCODING 108
SWIDTH 248 0
DWIDTH 10 0
BBX 4 29 3 0
BITMAP
F0
F0
F0
F0
F0
F0
F0
F0
F0
F0
F0
F0
F0
F0
F0
F0
F0
F0
F0
F0
F0
F0
F0
F0
F0
F0
F0
F0
F0
ENDCHAR
STARTCHAR 006D
ENCODING 109
SWIDTH 968 0
DWIDTH 39 0
BBX 33 23 3 0
BITMAP
01F807E000
F3FC1FF800
F7FE3FFE00
FFFF7FFE00
FE1FF83F00
F807E00F00
F807E00F80
F003C00780
F003C00780
F003C00780
F003C00780
F003C00780
F003C00780
F003C00780
F003C00780
F003C00780
F003C00780
F003C00780
F003C00780
F003C00780
F003C00780
F003C00780
F003C00780
ENDCHAR
STARTCHAR 006E
ENCODING 110
SWIDTH 620 0
DWIDTH 25 0
BBX 19 23 3 0
BITMAP
01F800
F3FE00
F7FF80
FFFF80
FE0FC0
FC07C0
F803E0
F801E0
F001E0
F001E0
F001E0
F001E0
F001E0
F001E0
F001E0
F001E0
F001E0
F001E0
F001E0
F001E0
F001E0
F001E0
F001E0
ENDCHAR
STARTCHAR 006F
ENCODING 111
SWIDTH 670 0
DWIDTH 27 0
BBX 23 24 2 -1
BITMAP
00FE00
03FF80
07FFE0
1FFFF0
1F83F8
3E00F8
7C007C
78003C
78003E
F0001E
F0001E
F0001E
F0001E
F0001E
F0001E
78003C
78003C
7C007C
3E00F8
1F83F0
1FFFF0
0FFFC0
03FF80
00FE00
ENDCHAR
STARTCHAR 0070
ENCODING 112
SWIDTH 695 0
DWIDTH 28 0
BBX 22 30 3 -7
BITMAP
00FE00
F3FF80
F7FFC0
F7FFE0
FF07F0
FE01F0
FC00F8
F80078
F8007C
F0003C
F0003C
F0003C
F0003C
F0003C
F0003C
F8007C
F80078
FC00F8
FE01F0
FF87F0
FFFFE0
F7FFC0
F3FF80
F0FC00
F00000
F00000
F00000
F00000
F00000
F00000
ENDCHAR
STARTCHAR 0071
ENCODING 113
SWIDTH 695 0
DWIDTH 28 0
BBX 22 30 2 -7
BITMAP
00FC00
03FF3C
0FFFBC
1FFFFC
3F87FC
3E01FC
7C00FC
78007C
F8007C
F0003C
F0003C
F0003C
F0003C
F0003C
F0003C
F8007C
78007C
7C00FC
3E01FC
3F83FC
1FFFFC
0FFFBC
07FF3C
00FC3C
00003C
00003C
00003C
00003C
00003C
00003C
ENDCHAR
STARTCHAR 0072
ENCODING 114
SWIDTH 322 0
DWIDTH 13 0
BBX 9 22 3 0
BITMAP
F380
F780
FF80
FF80
FE00
F800
F800
F000
F000
F000
F000
F000
F000
F000
F000
F000
F000
F000
F000
F000
F000
F000
ENDCHAR
STARTCHAR 0073
ENCODING 115
SWIDTH 422 0
DWIDTH 17 0
BBX 14 24 1 -1
BITMAP
07C0
1FF0
3FF8
3FF8
7C7C
787C
783C
7800
7C00
3F80
3FE0
1FF0
0FF8
01F8
007C
003C
F03C
F03C
F83C
7C7C
7FF8
3FF8
1FF0
07C0
ENDCHAR
STARTCHAR 0074
ENCODING 116
SWIDTH 273 0
DWIDTH 11 0
BBX 11 29 0 0
BITMAP
1E00
1E00
1E00
1E00
1E00
1E00
1E00
FFE0
FFE0
FFE0
FFE0
1E00
1E00
1E00
1E00
1E00
1E00
1E00
1E00
1E00
1E00
1E00
1E00
1E00
1E00
1E00
1E00
1E00
1E00
ENDCHAR
STARTCHAR 0075
ENCODING 117
SWIDTH 620 0
DWIDTH 25 0
BBX 19 23 3 -1
BITMAP
F001E0
F001E0
F001E0
F001E0
F001E0
F001E0
F001E0
F001E0
F001E0
F001E0
F001E0
F001E0
F001E0
F001E0
F001E0
F003E0
F803E0
7C07E0
7E0FE0
3FFFE0
1FFFE0
0FFDE0
03F000
ENDCHAR
STARTCHAR 0076
ENCODING 118
SWIDTH 546 0
DWIDTH 22 0
BBX 20 22 1 0
BITMAP
F801F0
7801E0
7801E0
7C03E0
3C03C0
3C03C0
1E0780
1E0780
1E0780
0F0F00
0F0F00
0F8F00
079E00
079E00
03DC00
03FC00
03FC00
01F800
01F800
00F000
00F000
00F000
ENDCHAR
STARTCHAR 0077
ENCODING 119
SWIDTH 794 0
DWIDTH 32 0
BBX 30 22 1 0
BITMAP
F803807C
78078078
78078078
7C0780F8
3C0FC0F0
3C0FC0F0
3E0FC1F0
1E1FE1E0
1E1FE1E0
1F1CE3E0
0F3CF3C0
0F3CF3C0
07B87780
07F87F80
07F87F80
03F03F00
03F03F00
03F03F00
01E01E00
01E01E00
00E01E00
00C00C00
ENDCHAR
STARTCHAR 0078
ENCODING 120
SWIDTH 521 0
DWIDTH 21 0
BBX 20 22 0 0
BITMAP
7C03E0
7C03E0
3E07C0
1E0F80
1F0F80
0F9F00
07BE00
07FE00
03FC00
01F800
01F800
01F800
03FC00
03FC00
07FE00
0F9F00
0F1F00
1F0F80
3E07C0
3C03C0
7C03E0
F801F0
ENDCHAR
STARTCHAR 0079
ENCODING 121
SWIDTH 571 0
DWIDTH 23 0
BBX 22 29 0 -7
BITMAP
F8007C
780078
780078
7C00F8
3C00F0
3E01F0
1E01E0
1E01E0
1F03C0
0F03C0
0F07C0
078780
078780
03CF00
03CF00
03DF00
01FE00
01FE00
00FC00
00FC00
00F800
007800
00F800
00F000
01F000
01E000
01E000
03C000
03C000
ENDCHAR
STARTCHAR 007A
ENCODING 122
SWIDTH 397 0
DWIDTH 16 0
BBX 16 22 0 0
BITMAP
7FFE
7FFE
7FFE
7FFE
003E
007C
0078
00F8
01F0
01E0
03E0
07C0
0F80
0F00
1F00
3E00
3C00
7C00
FFFF
FFFF
FFFF
FFFF
ENDCHAR
STARTCHAR 007B
ENCODING 123
SWIDTH 322 0
DWIDTH 13 0
BBX 12 37 1 -8
BITMAP
01F0
03F0
07F0
0F80
0F00
0F00
0F00
0F00
0F00
0F00
0F00
0F00
0F00
0F00
1F00
3F00
FE00
F800
FC00
FE00
3F00
1F00
0F00
0F00
0F00
0F00
0F00
0F00
0F00
0F00
0F00
0F00
0F00
0F80
07F0
03F0
01F0
ENDCHAR
STARTCHAR 007C
ENCODING 124
SWIDTH 546 0
DWIDTH 22 0
BBX 4 33 9 -5
BITMAP
F0
F0
F0
F0
F0
F0
F0
F0
F0
F0
F0
F0
F0
F0
F0
F0
F0
F0
F0
F0
F0
F0
F0
F0
F0
F0
F0
F0
F0
F0
F0
F0
F0
ENDCHAR
STARTCHAR 007D
ENCODING 125
SWIDTH 322 0
DWIDTH 13 0
BBX 12 37 1 -8
BITMAP
F800
FE00
FE00
1F00
0F00
0F00
0F00
0F00
0F00
0F00
0F00
0F00
0F00
0F00
0F80
0FC0
07F0
03F0
01F0
07F0
0FC0
0F80
0F00
0F00
0F00
0F00
0F00
0F00
0F00
0F00
0F00
0F00
0F00
1F00
FE00
FC00
F800
ENDCHAR
STARTCHAR 007E
ENCODING 126
SWIDTH 595 0
DWIDTH 24 0
BBX 18 7 3 7
BITMAP
1E0000
7FC080
7FF1C0
FFFFC0
E1FF80
407F80
401E00
ENDCHAR
STARTCHAR 00A1
ENCODING 161
SWIDTH 273 0
DWIDTH 11 0
BBX 4 29 3 -7
BITMAP
F0
F0
F0
F0
F0
00
00
F0
F0
F0
F0
F0
F0
F0
F0
F0
F0
F0
F0
F0
F0
F0
F0
F0
F0
F0
F0
F0
F0
ENDCHAR
STARTCHAR 00A2
ENCODING 162
SWIDTH 546 0
DWIDTH 22 0
BBX 18 26 2 3
BITMAP
01E000
01E000
01E000
01E000
07F800
1FFE00
3FFF00
3FFF80
7C0FC0
7807C0
F80000
F00000
F00000
F00000
F00000
F80000
7807C0
7E0F80
3FFF80
3FFF00
0FFE00
07F800
01E000
01E000
01E000
01E000
ENDCHAR
STARTCHAR 00A3
ENCODING 163
SWIDTH 546 0
DWIDTH 22 0
BBX 21 30 0 0
BITMAP
00FC00
07FF00
0FFF80
1FFFC0
3F07E0
3E03E0
3C01E0
7801F0
780000
780000
780000
780000
3C0000
FFFE00
FFFE00
FFFE00
FFFE00
07C000
03E000
01F078
00F078
00F078
00F078
00F078
00F0F8
00F1F0
3FFFF0
3FFFE0
3FFFC0
3FFF00
ENDCHAR
STARTCHAR 00A4
ENCODING 164
SWIDTH 546 0
DWIDTH 22 0
BBX 20 20 1 3
BITMAP
600060
F1F8F0
FFFFF0
7FFFE0
3FFFC0
3F0FC0
3C03C0
7C03E0
7801E0
7801E0
7801E0
7801E0
7C03E0
3C03C0
3F0FC0
3FFFC0
7FFFE0
FFFFF0
F1F8F0
600060
ENDCHAR
STARTCHAR 00A5
ENCODING 165
SWIDTH 546 0
DWIDTH 22 0
BBX 22 29 0 0
BITMAP
F8007C
780078
3C00F0
3E01F0
1E01E0
0F03C0
0F03C0
078780
07CF80
7FCFF8
7FFFF8
7FFFF8
7FFFF8
00FC00
00FC00
007800
007800
7FFFF8
7FFFF8
7FFFF8
7FFFF8
007800
007800
007800
007800
007800
007800
007800
007800
ENDCHAR
STARTCHAR 00A6
ENCODING 166
SWIDTH 546 0
DWIDTH 22 0
BBX 4 33 9 -4
BITMAP
F0
F0
F0
F0
F0
F0
F0
F0
F0
F0
F0
F0
F0
00
00
00
00
00
00
00
F0
F0
F0
F0
F0
F0
F0
F0
F0
F0
F0
F0
F0
ENDCHAR
STARTCHAR 00A7
ENCODING 167
SWIDTH 571 0
DWIDTH 23 0
BBX 19 39 2 -9
BITMAP
01F000
07FC00
0FFE00
1FFF00
1F0F80
3E0780
3C0780
3C0780
3C0000
1E0000
1F8000
1FE000
3FF800
7FFE00
78FF00
F03F80
F00FC0
F007E0
F001E0
F801E0
7E01E0
7F81E0
3FE3C0
0FF7C0
03FF80
00FF00
003F00
001F80
0007C0
0003C0
7803C0
7803C0
7803C0
7C07C0
3E0F80
3FFF80
1FFF00
0FFE00
03F800
ENDCHAR
STARTCHAR 00A8
ENCODING 168
SWIDTH 546 0
DWIDTH 22 0
BBX 10 5 6 25
BITMAP
F3C0
F3C0
F3C0
F3C0
F3C0
ENDCHAR
STARTCHAR 00A9
ENCODING 169
SWIDTH 794 0
DWIDTH 32 0
BBX 30 30 1 0
BITMAP
000FE000
007FFC00
01FFFE00
03F03F80
0F8007C0
0F0003E0
1E0781E0
3C1FF0F0
383FF878
70783C38
70F01E38
70E00E3C
E1C0001C
E1C0001C
E1C0001C
E1C0001C
E1C0001C
E1C0001C
F0E00E1C
70F01E38
70F83C38
787FF878
3C3FF070
1E0FC0E0
1F0001E0
0F8007C0
07F01F80
01FFFE00
00FFFC00
001FE000
ENDCHAR
STARTCHAR 00AA
ENCODING 170
SWIDTH 397 0
DWIDTH 16 0
BBX 13 13 1 17
BITMAP
0F00
3FF8
7FF8
78F8
F078
E038
E038
E038
F078
78F8
7FF8
3FF8
0FB8
ENDCHAR
STARTCHAR 00AB
ENCODING 171
SWIDTH 372 0
DWIDTH 15 0
BBX 12 13 1 5
BITMAP
0810
1830
3870
78F0
F1E0
E1C0
C180
E1C0
F1E0
78F0
3870
1830
0810
ENDCHAR
STARTCHAR 00AC
ENCODING 172
SWIDTH 595 0
DWIDTH 24 0
BBX 20 12 2 3
BITMAP
FFFFF0
FFFFF0
FFFFF0
FFFFF0
0000F0
0000F0
0000F0
0000F0
0000F0
0000F0
0000F0
0000F0
ENDCHAR
STARTCHAR 00AE
ENCODING 174
SWIDTH 794 0
DWIDTH 32 0
BBX 30 30 1 0
BITMAP
001FE000
007FFC00
01FFFE00
07F03F80
0F8007C0
1F0003E0
1E0001E0
3CFFE0F0
38FFF878
70FFFC38
70E03C38
F0E01C3C
E0E01C1C
E0E03C1C
E0FFF81C
E0FFE01C
E0FFF81C
E0E03C1C
F0E01C1C
70E01C38
70E01C38
78E01C78
3CE01CF0
1EE01CE0
1F0003E0
0F8007C0
07F03F80
01FFFE00
00FFF800
001FE000
ENDCHAR
STARTCHAR 00AF
ENCODING 175
SWIDTH 546 0
DWIDTH 22 0
BBX 14 3 4 26
BITMAP
FFFC
FFFC
FFFC
ENDCHAR
STARTCHAR 00B0
ENCODING 176
SWIDTH 397 0
DWIDTH 16 0
BBX 11 11 2 18
BITMAP
1F00
3FC0
71C0
E0E0
C060
C060
C060
E0E0
71C0
3F80
1F00
ENDCHAR
STARTCHAR 00B1
ENCODING 177
SWIDTH 595 0
DWIDTH 24 0
BBX 20 23 2 -1
BITMAP
00F000
00F000
00F000
00F000
00F000
00F000
FFFFF0
FFFFF0
FFFFF0
FFFFF0
00F000
00F000
00F000
00F000
00F000
00F000
000000
000000
000000
FFFFF0
FFFFF0
FFFFF0
FFFFF0
ENDCHAR
STARTCHAR 00B2
ENCODING 178
SWIDTH 347 0
DWIDTH 14 0
BBX 11 18 1 12
BITMAP
1F00
3F80
7FC0
F1E0
E0E0
E0E0
E0E0
00E0
01C0
03C0
0780
0F00
1E00
3C00
7800
FFE0
FFE0
FFE0
ENDCHAR
STARTCHAR 00B3
ENCODING 179
SWIDTH 347 0
DWIDTH 14 0
BBX 12 19 1 11
BITMAP
0F00
3FC0
3FC0
79E0
70E0
00E0
01E0
07C0
07C0
07E0
00F0
0070
0070
E070
E070
70E0
7FE0
3FC0
1F00
ENDCHAR
STARTCHAR 00B4
ENCODING 180
SWIDTH 546 0
DWIDTH 22 0
BBX 10 8 7 24
BITMAP
0180
0380
0FC0
3F80
FF00
FC00
F000
4000
ENDCHAR
STARTCHAR 00B5
ENCODING 181
SWIDTH 620 0
DWIDTH 25 0
BBX 19 29 3 -7
BITMAP
F001E0
F001E0
F001E0
F001E0
F001E0
F001E0
F001E0
F001E0
F001E0
F001E0
F001E0
F001E0
F001E0
F001E0
F001E0
F803E0
F803E0
FC07E0
FE0FE0
FFFFE0
FFFDE0
F7FDE0
F1F000
F00000
F00000
F00000
F00000
F00000
F00000
ENDCHAR
STARTCHAR 00B6
ENCODING 182
SWIDTH 645 0
DWIDTH 26 0
BBX 21 36 0 -8
BITMAP
03FFF8
1FFFF8
3FFFF8
7FFFF8
7FF878
7FF878
FFF878
FFF878
FFF878
7FF878
7FF878
7FF878
3FF878
1FF878
07F878
007878
007878
007878
007878
007878
007878
007878
007878
007878
007878
007878
007878
007878
007878
007878
007878
007878
007878
007878
007878
007878
ENDCHAR
STARTCHAR 00B7
ENCODING 183
SWIDTH 273 0
DWIDTH 11 0
BBX 4 4 4 8
BITMAP
F0
F0
F0
F0
ENDCHAR
STARTCHAR 00B8
ENCODING 184
SWIDTH 546 0
DWIDTH 22 0
BBX 7 10 8 -9
BITMAP
30
60
60
7C
7E
06
06
CE
FC
78
ENDCHAR
STARTCHAR 00B9
ENCODING 185
SWIDTH 347 0
DWIDTH 14 0
BBX 5 17 4 12
BITMAP
F8
F8
F8
38
38
38
38
38
38
38
38
38
38
38
38
38
38
ENDCHAR
STARTCHAR 00BA
ENCODING 186
SWIDTH 397 0
DWIDTH 16 0
BBX 13 13 1 17
BITMAP
0F80
3FE0
7FF0
78F0
F078
E038
E038
E038
F078
78F0
7FF0
3FE0
0F80
ENDCHAR
STARTCHAR 00BB
ENCODING 187
SWIDTH 372 0
DWIDTH 15 0
BBX 12 13 1 5
BITMAP
8100
C180
E1C0
F1E0
78F0
3870
1830
3870
78F0
F1E0
E1C0
C180
8100
ENDCHAR
STARTCHAR 00BC
ENCODING 188
SWIDTH 695 0
DWIDTH 28 0
BBX 26 29 1 0
BITMAP
F8007000
F800E000
F800E000
3801C000
3801C000
38038000
38038000
38030000
38070000
38070000
380E0000
380E0700
381C0F00
381C0F00
38381F00
38383F00
38303F00
00707700
0060E700
00E0E700
00E1C700
01C3C700
01C38700
03870700
0387FFC0
0707FFC0
07000700
06000700
0E000700
ENDCHAR
STARTCHAR 00BD
ENCODING 189
SWIDTH 720 0
DWIDTH 29 0
BBX 26 29 1 0
BITMAP
F800E000
F801C000
F801C000
38018000
38038000
38030000
38070000
38070000
380E0000
380E0000
381C0000
381C3E00
38387F00
3838FF80
3871E3C0
3871C1C0
3861C1C0
00E1C1C0
00C003C0
01C00380
01C00780
03800F00
03801E00
07003C00
07007800
0E00F000
0E01FFC0
0C01FFC0
1C01FFC0
ENDCHAR
STARTCHAR 00BE
ENCODING 190
SWIDTH 769 0
DWIDTH 31 0
BBX 29 30 1 0
BITMAP
0F000000
3FC00E00
3FC00C00
79E01C00
70E01800
00E03800
01E03800
07C07000
07C07000
07E06000
00F0E000
0070C000
0071C0E0
E071C0E0
E07381E0
70E383E0
7FE303E0
3FC707E0
1F060EE0
000E0EE0
000E1CE0
001C1CE0
001C38E0
003870E0
003870E0
00307FF8
00707FF8
007000E0
00E000E0
00E000E0
ENDCHAR
STARTCHAR 00BF
ENCODING 191
SWIDTH 521 0
DWIDTH 21 0
BBX 17 30 2 -8
BITMAP
03C000
03C000
03C000
03C000
03C000
000000
000000
000000
03C000
03C000
03C000
078000
078000
0F8000
1F0000
3E0000
7E0000
7C0000
F80000
F00000
F00000
F00780
F00780
F80F80
781F00
7C3F00
3FFE00
3FFC00
1FF800
07E000
ENDCHAR
STARTCHAR 00C0
ENCODING 192
SWIDTH 695 0
DWIDTH 28 0
BBX 26 38 1 1
BITMAP
00C00000
00F00000
01FC0000
00FF0000
003F8000
000F8000
00030000
00010000
00000000
001E0000
001F0000
003F0000
003F0000
007F8000
007F8000
007F8000
00F3C000
00F3C000
01F3E000
01E1E000
01E1E000
03C0F000
03C0F000
03C0F000
07807800
07FFF800
0FFFFC00
0FFFFC00
0FFFFC00
1F003E00
1E001E00
3E001F00
3E001F00
3C000F00
7C000F80
78000780
78000780
F80007C0
ENDCHAR
STARTCHAR 00C1
ENCODING 193
SWIDTH 695 0
DWIDTH 28 0
BBX 26 39 1 0
BITMAP
00004000
0001E000
0007F000
001FE000
003F8000
007E0000
00780000
00200000
00000000
00000000
001F0000
001F0000
003F0000
003F8000
003F8000
007F8000
007BC000
00F3C000
00F1E000
00F1E000
01E1E000
01E0F000
03E0F000
03C07000
03C07800
07807800
07FFF800
0FFFFC00
0FFFFC00
0FFFFE00
1F001E00
1E000E00
1E000F00
3C000F00
3C000700
7C000780
78000780
78000380
F80003C0
ENDCHAR
STARTCHAR 00C2
ENCODING 194
SWIDTH 695 0
DWIDTH 28 0
BBX 26 37 1 0
BITMAP
001F0000
003F8000
007FC000
00F3E000
03E0F000
00000000
00000000
00000000
001E0000
001F0000
003F0000
003F0000
007F8000
007F8000
007BC000
00F3C000
00F3C000
00F1E000
01E1E000
01E1E000
03E0F000
03C0F000
03C07800
07807800
07FFF800
0FFFFC00
0FFFFC00
0FFFFC00
1F001E00
1E001E00
1E000F00
3E000F00
3C000F00
7C000780
7C000780
78000780
F80003C0
ENDCHAR
STARTCHAR 00C3
ENCODING 195
SWIDTH 695 0
DWIDTH 28 0
BBX 26 36 1 0
BITMAP
00F86000
03FFE000
01FFF000
0107C000
00000000
00000000
00000000
001E0000
003E0000
003F0000
003F0000
007F8000
007F8000
00778000
00F3C000
00F3C000
01E3C000
01E1E000
01E1E000
03C1F000
03C0F000
03C0F000
0780F800
07FFF800
0FFFFC00
0FFFFC00
0FFFFC00
1F003E00
1E001E00
3E001F00
3C001F00
3C000F00
7C000F80
78000F80
78000780
F80007C0
ENDCHAR
STARTCHAR 00C4
ENCODING 196
SWIDTH 695 0
DWIDTH 28 0
BBX 26 37 1 0
BITMAP
00F3C000
00F3C000
00F3C000
00F3C000
00F3C000
00000000
00000000
00000000
001E0000
001E0000
003F0000
003F0000
007F8000
007F8000
007F8000
00F3C000
00F3C000
01F3E000
01E1E000
01E1E000
03C1F000
03C0F000
03C0F000
0780F800
07FFF800
0FFFFC00
0FFFFC00
0FFFFC00
1F003E00
1E001E00
3E001F00
3E001F00
3C000F00
7C000F80
78000F80
78000780
F80007C0
ENDCHAR
STARTCHAR 00C5
ENCODING 197
SWIDTH 695 0
DWIDTH 28 0
BBX 26 39 1 0
BITMAP
001E0000
003F0000
00738000
00618000
00618000
00618000
00738000
003F0000
001E0000
00000000
001E0000
001E0000
003F0000
003F0000
007F8000
007F8000
007F8000
00F3C000
00F3C000
01F3E000
01E1E000
01E1E000
03C1F000
03C0F000
03C0F000
0780F800
07FFF800
0FFFFC00
0FFFFC00
0FFFFC00
1F003E00
1E001E00
3E001F00
3E001F00
3C000F00
7C000F80
7C000F80
78000780
F80007C0
ENDCHAR
STARTCHAR 00C6
ENCODING 198
SWIDTH 918 0
DWIDTH 37 0
BBX 34 29 0 0
BITMAP
00001FFFC0
00001FFFC0
00003FFFC0
00007FFFC0
00007F0000
0000FF0000
0001FF0000
0001EF0000
0003CF0000
0007CF0000
00078F0000
000F8F0000
001F0FFFC0
001E0FFFC0
003E0FFFC0
007C0FFFC0
00F80F0000
00FFFF0000
01FFFF0000
03FFFF0000
03FFFF0000
07C00F0000
0F800F0000
0F800F0000
1F000F0000
3E000FFFC0
3E000FFFC0
7C000FFFC0
F8000FFFC0
ENDCHAR
STARTCHAR 00C7
ENCODING 199
SWIDTH 794 0
DWIDTH 32 0
BBX 28 40 2 -10
BITMAP
001FE000
007FF800
01FFFE00
07FFFF80
0FF03FC0
1F800FE0
1F0007E0
3E0003F0
3C000000
7C000000
78000000
78000000
F0000000
F0000000
F0000000
F0000000
F0000000
F0000000
F0000000
78000000
78000000
7C000000
3C000000
3E0003F0
1F0007E0
0FC00FC0
0FF03F80
07FFFF00
01FFFE00
00FFF800
001FE000
000C0000
000C0000
000F8000
000FC000
0000C000
0000C000
0019C000
001F8000
000F0000
ENDCHAR
STARTCHAR 00C8
ENCODING 200
SWIDTH 521 0
DWIDTH 21 0
BBX 15 38 3 1
BITMAP
1800
3E00
3F80
0FC0
07F0
01E0
0060
0000
0000
FFFE
FFFE
FFFE
FFFE
F000
F000
F000
F000
F000
F000
F000
F000
FFFE
FFFE
FFFE
FFFE
F000
F000
F000
F000
F000
F000
F000
F000
F000
FFFE
FFFE
FFFE
FFFE
ENDCHAR
STARTCHAR 00C9
ENCODING 201
SWIDTH 521 0
DWIDTH 21 0
BBX 16 39 3 0
BITMAP
0010
0078
00FC
03F8
0FE0
1FC0
0F00
0C00
0000
0000
FFFF
FFFF
FFFF
FFFF
F000
F000
F000
F000
F000
F000
F000
F000
FFFF
FFFF
FFFF
FFFF
F000
F000
F000
F000
F000
F000
F000
F000
F000
FFFF
FFFF
FFFF
FFFF
ENDCHAR
STARTCHAR 00CA
ENCODING 202
SWIDTH 521 0
DWIDTH 21 0
BBX 16 37 3 0
BITMAP
07C0
0FE0
1EF0
3C78
783C
0000
0000
0000
FFFF
FFFF
FFFF
FFFF
F000
F000
F000
F000
F000
F000
F000
F000
FFFF
FFFF
FFFF
FFFF
F000
F000
F000
F000
F000
F000
F000
F000
F000
FFFF
FFFF
FFFF
FFFF
ENDCHAR
STARTCHAR 00CB
ENCODING 203
SWIDTH 521 0
DWIDTH 21 0
BBX 15 37 3 0
BITMAP
3CF0
3CF0
3CF0
3CF0
3CF0
0000
0000
0000
FFFE
FFFE
FFFE
FFFE
F000
F000
F000
F000
F000
F000
F000
F000
FFFE
FFFE
FFFE
FFFE
F000
F000
F000
F000
F000
F000
F000
F000
F000
FFFE
FFFE
FFFE
FFFE
ENDCHAR
STARTCHAR 00CC
ENCODING 204
SWIDTH 248 0
DWIDTH 10 0
BBX 11 38 -3 1
BITMAP
7000
7C00
FE00
3F80
0FE0
07C0
01C0
0000
0000
03C0
03C0
03C0
03C0
03C0
03C0
03C0
03C0
03C0
03C0
03C0
03C0
03C0
03C0
03C0
03C0
03C0
03C0
03C0
03C0
03C0
03C0
03C0
03C0
03C0
03C0
03C0
03C0
03C0
ENDCHAR
STARTCHAR 00CD
ENCODING 205
SWIDTH 248 0
DWIDTH 10 0
BBX 11 39 2 0
BITMAP
0080
03C0
07E0
1FC0
7F00
FE00
7800
2000
0000
0000
7800
7800
7800
7800
7800
7800
7800
7800
7800
7800
7800
7800
7800
7800
7800
7800
7800
7800
7800
7800
7800
7800
7800
7800
7800
7800
7800
7800
7800
ENDCHAR
STARTCHAR 00CE
ENCODING 206
SWIDTH 248 0
DWIDTH 10 0
BBX 14 37 -2 0
BITMAP
0780
0FE0
1FF0
3CF8
F87C
0000
0000
0000
0780
0780
0780
0780
0780
0780
0780
0780
0780
0780
0780
0780
0780
0780
0780
0780
0780
0780
0780
0780
0780
0780
0780
0780
0780
0780
0780
0780
0780
ENDCHAR
STARTCHAR 00CF
ENCODING 207
SWIDTH 248 0
DWIDTH 10 0
BBX 10 37 0 0
BITMAP
F3C0
F3C0
F3C0
F3C0
F3C0
0000
0000
0000
1E00
1E00
1E00
1E00
1E00
1E00
1E00
1E00
1E00
1E00
1E00
1E00
1E00
1E00
1E00
1E00
1E00
1E00
1E00
1E00
1E00
1E00
1E00
1E00
1E00
1E00
1E00
1E00
1E00
ENDCHAR
STARTCHAR 00D0
ENCODING 208
SWIDTH 720 0
DWIDTH 29 0
BBX 26 29 1 0
BITMAP
3FFF0000
3FFFE000
3FFFF000
3FFFFC00
3C01FE00
3C007E00
3C001F00
3C000F00
3C000F80
3C000780
3C0007C0
3C0003C0
FFFC03C0
FFFC03C0
FFFC03C0
FFFC03C0
3C0003C0
3C0003C0
3C000780
3C000780
3C000F80
3C000F00
3C001F00
3C007E00
3C01FE00
3FFFFC00
3FFFF000
3FFFC000
3FFF0000
ENDCHAR
STARTCHAR 00D1
ENCODING 209
SWIDTH 744 0
DWIDTH 30 0
BBX 23 36 3 0
BITMAP
03E180
0FFF80
07FFC0
021F00
000000
000000
000000
F8001E
F8001E
FC001E
FE001E
FE001E
FF001E
FF001E
F7801E
F7C01E
F3C01E
F3E01E
F1E01E
F0F01E
F0F81E
F0781E
F03C1E
F03E1E
F01E1E
F01F1E
F00F1E
F0079E
F007DE
F003FE
F003FE
F001FE
F000FE
F000FE
F0007E
F0003E
ENDCHAR
STARTCHAR 00D2
ENCODING 210
SWIDTH 844 0
DWIDTH 34 0
BBX 30 40 2 -1
BITMAP
00300000
00380000
007E0000
003F8000
000FE000
0007E000
0001E000
00004000
00000000
001FE000
007FFC00
01FFFE00
03FFFF80
0FF03FC0
0F8007E0
1F0003E0
3E0001F0
3C0000F0
7C0000F8
78000078
7800007C
F000003C
F000003C
F000003C
F000003C
F000003C
F000003C
F000003C
7800007C
78000078
7C0000F8
3C0000F0
3E0001F0
1F0003E0
0FC007C0
0FF03FC0
03FFFF00
01FFFE00
007FF800
001FE000
ENDCHAR
STARTCHAR 00D3
ENCODING 211
SWIDTH 844 0
DWIDTH 34 0
BBX 30 40 2 -1
BITMAP
00003000
00007000
0001F800
0007F000
001FE000
001F8000
001E0000
00080000
00000000
001FE000
007FFC00
01FFFE00
03FFFF80
0FF03FC0
0F8007E0
1F0003E0
3E0001F0
3C0000F0
7C0000F8
78000078
7800007C
F000003C
F000003C
F000003C
F000003C
F000003C
F000003C
F000003C
7800007C
78000078
7C0000F8
3C0000F0
3E0001F0
1F0003E0
0F8007C0
0FF03FC0
07FFFF00
01FFFE00
00FFF800
001FE000
ENDCHAR
STARTCHAR 00D4
ENCODING 212
SWIDTH 844 0
DWIDTH 34 0
BBX 30 38 2 -1
BITMAP
000F8000
001FC000
003DE000
0078F000
00F07800
00000000
00000000
001FC000
00FFF800
01FFFE00
07FFFF00
0FE03FC0
1F800FC0
1F0003E0
3E0001F0
3C0000F0
7C0000F8
78000078
7800007C
F000003C
F000003C
F000003C
F000003C
F000003C
F000003C
F000003C
7800007C
78000078
7C0000F8
3C0000F0
3E0001F0
1F0003E0
1F800FC0
0FE03F80
07FFFF00
01FFFE00
00FFF800
001FC000
ENDCHAR
STARTCHAR 00D5
ENCODING 213
SWIDTH 844 0
DWIDTH 34 0
BBX 30 37 2 -1
BITMAP
007C3000
00FFF000
00FFF800
0043E000
00000000
00000000
001FC000
00FFF800
01FFFE00
07FFFF00
0FE03F80
1F800FC0
1F0003E0
3E0001F0
3C0000F0
7C0000F8
78000078
7800007C
F000003C
F000003C
F000003C
F000003C
F000003C
F000003C
F000003C
78000078
78000078
7C0000F8
3C0000F0
3E0001F0
1F0003E0
1F800FC0
0FE03F80
07FFFF00
03FFFE00
00FFF800
001FC000
ENDCHAR
STARTCHAR 00D6
ENCODING 214
SWIDTH 844 0
DWIDTH 34 0
BBX 30 38 2 -1
BITMAP
003CF000
003CF000
003CF000
003CF000
003CF000
00000000
00000000
001FE000
007FFC00
01FFFE00
03FFFF80
0FF03FC0
0F8007E0
1F0003E0
3E0001F0
3C0000F0
7C0000F8
78000078
7800007C
F000003C
F000003C
F000003C
F000003C
F000003C
F000003C
F000003C
7800007C
78000078
7C0000F8
3C0000F0
3E0001F0
1F0003E0
0FC007C0
0FF03FC0
03FFFF00
01FFFE00
007FF800
001FE000
ENDCHAR
STARTCHAR 00D7
ENCODING 215
SWIDTH 595 0
DWIDTH 24 0
BBX 19 19 2 1
BITMAP
200080
7001C0
F803E0
7C07C0
3E0F80
1F1F00
0FBE00
07FC00
03F800
01F000
03F800
07FC00
0FBE00
1F1F00
3E0F80
7C07C0
F803E0
7001C0
200080
ENDCHAR
STARTCHAR 00D8
ENCODING 216
SWIDTH 844 0
DWIDTH 34 0
BBX 30 35 2 -4
BITMAP
00000040
000000E0
001FE1F0
007FFDF0
01FFFFE0
03FFFFC0
0FF03FC0
0F800FE0
1F001FE0
3E003FF0
3C003EF8
7C007CF8
7800F878
7800F07C
F001F03C
F003E03C
F007C03C
F007C03C
F00F803C
F01F003C
F01E003C
783E007C
787C0078
7CF800F8
3CF800F0
3FF001F0
1FE003E0
1FE007C0
0FF03FC0
0FFFFF00
1FFFFE00
1EFFF800
3E1FE000
1C000000
08000000
ENDCHAR
STARTCHAR 00D9
ENCODING 217
SWIDTH 645 0
DWIDTH 26 0
BBX 19 39 3 0
BITMAP
0C0000
1F0000
1FC000
07E000
03F800
00F000
003000
000000
000000
F001E0
F001E0
F001E0
F001E0
F001E0
F001E0
F001E0
F001E0
F001E0
F001E0
F001E0
F001E0
F001E0
F001E0
F001E0
F001E0
F001E0
F001E0
F001E0
F001E0
F001E0
F001E0
F001E0
F803E0
7C07C0
7E0FC0
3FFF80
1FFF00
0FFE00
03F800
ENDCHAR
STARTCHAR 00DA
ENCODING 218
SWIDTH 645 0
DWIDTH 26 0
BBX 19 40 3 -1
BITMAP
000200
000F00
003F80
007F00
01FC00
03F800
01E000
018000
000000
000000
F001E0
F001E0
F001E0
F001E0
F001E0
F001E0
F001E0
F001E0
F001E0
F001E0
F001E0
F001E0
F001E0
F001E0
F001E0
F001E0
F001E0
F001E0
F001E0
F001E0
F001E0
F001E0
F001E0
F803E0
7C07C0
7E0FC0
3FFF80
1FFF00
0FFE00
03F800
ENDCHAR
STARTCHAR 00DB
ENCODING 219
SWIDTH 645 0
DWIDTH 26 0
BBX 19 38 3 -1
BITMAP
01F000
03F800
07FC00
0F1E00
1E0F00
000000
000000
000000
F001E0
F001E0
F001E0
F001E0
F001E0
F001E0
F001E0
F001E0
F001E0
F001E0
F001E0
F001E0
F001E0
F001E0
F001E0
F001E0
F001E0
F001E0
F001E0
F001E0
F001E0
F001E0
F001E0
F803E0
7C07C0
7E0FC0
3FFF80
1FFF00
0FFE00
03F800
ENDCHAR
STARTCHAR 00DC
ENCODING 220
SWIDTH 645 0
DWIDTH 26 0
BBX 19 38 3 -1
BITMAP
079E00
079E00
079E00
079E00
079E00
000000
000000
000000
F001E0
F001E0
F001E0
F001E0
F001E0
F001E0
F001E0
F001E0
F001E0
F001E0
F001E0
F001E0
F001E0
F001E0
F001E0
F001E0
F001E0
F001E0
F001E0
F001E0
F001E0
F001E0
F801E0
7803E0
7C03C0
7F0FC0
3FFF80
1FFF00
0FFE00
01F800
ENDCHAR
STARTCHAR 00DD
ENCODING 221
SWIDTH 595 0
DWIDTH 24 0
BBX 22 39 1 0
BITMAP
000180
000380
000FC0
003F80
007F00
00FC00
00F000
004000
000000
000000
F8007C
780078
7C00F8
3C00F0
3E01F0
1E01E0
1F03E0
0F03C0
0F87C0
078780
07CF80
03CF00
03EF00
01FE00
01FE00
01FC00
00FC00
00F800
007800
007800
007800
007800
007800
007800
007800
007800
007800
007800
007800
ENDCHAR
STARTCHAR 00DE
ENCODING 222
SWIDTH 571 0
DWIDTH 23 0
BBX 18 29 3 0
BITMAP
F00000
F00000
F00000
F00000
F00000
FFF000
FFFC00
FFFF00
FFFF00
F01F80
F00780
F007C0
F003C0
F003C0
F003C0
F003C0
F007C0
F00780
F01F80
FFFF00
FFFF00
FFFC00
FFF000
F00000
F00000
F00000
F00000
F00000
F00000
ENDCHAR
STARTCHAR 00DF
ENCODING 223
SWIDTH 645 0
DWIDTH 26 0
BBX 21 31 3 -1
BITMAP
03E000
0FF800
1FFC00
3FFE00
7C1F00
780F00
F80F80
F00780
F00780
F00780
F00780
F00F00
F01F00
F0FE00
F0FF80
F0FFE0
F0FFE0
F003F0
F000F8
F000F8
F00078
F00078
FE0078
FF0078
FF00F8
FF80F0
F7C3F0
F7FFE0
F3FFC0
F1FF80
007E00
ENDCHAR
STARTCHAR 00E0
ENCODING 224
SWIDTH 695 0
DWIDTH 28 0
BBX 23 33 2 0
BITMAP
01C000
03F000
03FC00
00FE00
003F00
000F00
000600
000000
000000
00FE00
03FF9E
0FFFDE
1FFFFE
3F83FE
3E00FE
7C007E
78003E
78003E
F0001E
F0001E
F0001E
F0001E
F0001E
F0001E
F8003E
78003E
7C007E
3E00FE
3F83FE
1FFFDE
0FFFDE
03FF1E
00FC00
ENDCHAR
STARTCHAR 00E1
ENCODING 225
SWIDTH 695 0
DWIDTH 28 0
BBX 23 33 2 -1
BITMAP
000180
000380
000FC0
003F80
007F00
00FC00
00F000
004000
000000
00FE00
03FF9E
0FFFDE
1FFFFE
3F83FE
3E00FE
7C007E
78003E
78003E
F0001E
F0001E
F0001E
F0001E
F0001E
F0001E
F8003E
78003E
7C007E
3E00FE
3F83FE
1FFFDE
0FFFDE
03FF1E
00FC00
ENDCHAR
STARTCHAR 00E2
ENCODING 226
SWIDTH 695 0
DWIDTH 28 0
BBX 22 31 2 -1
BITMAP
007C00
00FE00
01FF00
03CF80
0787C0
000000
000000
00FC00
07FF3C
0FFFBC
1FFFFC
3F07FC
3E01FC
7C00FC
78007C
78007C
F0003C
F0003C
F0003C
F0003C
F0003C
F0003C
F8007C
78007C
7C00FC
3E01FC
3F07FC
1FFFBC
0FFFBC
07FF3C
01FC00
ENDCHAR
STARTCHAR 00E3
ENCODING 227
SWIDTH 695 0
DWIDTH 28 0
BBX 22 30 2 -1
BITMAP
01E080
07FFC0
07FFC0
033F80
000000
000000
00FC00
03FF3C
0FFFBC
1FFFFC
3F07FC
3E01FC
7C00FC
78007C
78007C
F0003C
F0003C
F0003C
F0003C
F0003C
F0003C
F8007C
78007C
7C00FC
3E01FC
3F87FC
1FFFFC
0FFFBC
07FF3C
00FC00
ENDCHAR
STARTCHAR 00E4
ENCODING 228
SWIDTH 695 0
DWIDTH 28 0
BBX 23 31 2 -1
BITMAP
01E780
01E780
01E780
01E780
01E780
000000
000000
00FE00
03FF9E
0FFFDE
1FFFFE
3F83FE
3E00FE
7C007E
78003E
78003E
F0001E
F0001E
F0001E
F0001E
F0001E
F0001E
F8003E
78003E
7C007E
3E00FE
3F83FE
1FFFDE
0FFFDE
03FF1E
00FC00
ENDCHAR
STARTCHAR 00E5
ENCODING 229
SWIDTH 695 0
DWIDTH 28 0
BBX 23 34 2 -1
BITMAP
003C00
00FE00
00C700
018300
018300
018300
01C700
00FE00
007800
000000
00FC00
07FF1E
0FFFDE
1FFFFE
3F03FE
3E00FE
7C007E
78003E
78003E
F0001E
F0001E
F0001E
F0001E
F0001E
F0001E
F8003E
78003E
7C007E
3E00FE
3F83FE
1FFFDE
0FFFDE
07FF1E
00FC00
ENDCHAR
STARTCHAR 00E6
ENCODING 230
SWIDTH 1142 0
DWIDTH 46 0
BBX 41 24 2 -1
BITMAP
00FE001F8000
03FF9E7FF000
0FFFDEFFF800
1FFFFFFFFC00
3F83FFF07E00
3E00FFC01E00
7C007F800F00
78003F000F00
F8003F000780
F0001E000780
F0001E000780
F0001FFFFF80
F0001FFFFF80
F0001FFFFF80
F0001E000000
78003F000000
78003F000F00
7C007F800F00
3E00FFC01E00
3F83FFF07E00
1FFFFFFFFC00
0FFFDEFFF800
03FF9E7FE000
00FE001F8000
ENDCHAR
STARTCHAR 00E7
ENCODING 231
SWIDTH 620 0
DWIDTH 25 0
BBX 21 33 2 -10
BITMAP
00FC00
07FF00
0FFFC0
1FFFE0
3F07F0
3C01F0
7C00F8
780078
F80000
F00000
F00000
F00000
F00000
F00000
F80000
780078
7C00F8
3E01F0
3F07F0
1FFFE0
0FFFC0
07FF00
01FC00
006000
006000
00C000
00F800
00FC00
000C00
000C00
018C00
00F800
007000
ENDCHAR
STARTCHAR 00E8
ENCODING 232
SWIDTH 645 0
DWIDTH 26 0
BBX 22 33 2 0
BITMAP
038000
07E000
07F800
01FC00
007E00
001E00
000C00
000000
000000
00FC00
03FF80
0FFFC0
1FFFE0
3F03F0
3E00F8
780078
780078
F0003C
F0003C
FFFFFC
FFFFFC
FFFFFC
FFFFFC
F00000
780000
780078
7C0078
3E00F0
1F83F0
1FFFE0
0FFFC0
03FF00
00FC00
ENDCHAR
STARTCHAR 00E9
ENCODING 233
SWIDTH 645 0
DWIDTH 26 0
BBX 22 33 2 -1
BITMAP
000300
000700
001F80
007F00
01FE00
01F800
01E000
008000
000000
00FC00
03FF80
0FFFC0
1FFFE0
3F03F0
3C00F0
780078
780078
F0003C
F0003C
FFFFFC
FFFFFC
FFFFFC
FFFFFC
F00000
780000
780078
7C0078
3E00F0
3F83F0
1FFFE0
0FFFC0
03FF00
00FC00
ENDCHAR
STARTCHAR 00EA
ENCODING 234
SWIDTH 645 0
DWIDTH 26 0
BBX 23 31 2 -1
BITMAP
007C00
00FE00
01EF00
03C780
0783C0
000000
000000
00FE00
03FF80
0FFFE0
1FFFF0
3F83F8
3E00F8
78003C
78003C
F0001E
F0001E
FFFFFE
FFFFFE
FFFFFE
FFFFFE
F00000
780000
78003C
7C003C
3E00F8
1F81F8
1FFFF0
07FFE0
03FF80
00FE00
ENDCHAR
STARTCHAR 00EB
ENCODING 235
SWIDTH 645 0
DWIDTH 26 0
BBX 22 31 2 -1
BITMAP
03CF00
03CF00
03CF00
03CF00
03CF00
000000
000000
00FC00
03FF80
0FFFC0
1FFFE0
3F03F0
3C00F8
780078
780078
F0003C
F0003C
FFFFFC
FFFFFC
FFFFFC
FFFFFC
F00000
780000
780078
7C0078
3E00F0
1F83F0
1FFFE0
0FFFC0
03FF00
00FC00
ENDCHAR
STARTCHAR 00EC
ENCODING 236
SWIDTH 248 0
DWIDTH 10 0
BBX 11 32 -3 1
BITMAP
6000
7800
FE00
3F80
1FE0
07C0
01C0
0000
0000
0000
03C0
03C0
03C0
03C0
03C0
03C0
03C0
03C0
03C0
03C0
03C0
03C0
03C0
03C0
03C0
03C0
03C0
03C0
03C0
03C0
03C0
03C0
ENDCHAR
STARTCHAR 00ED
ENCODING 237
SWIDTH 248 0
DWIDTH 10 0
BBX 11 32 2 0
BITMAP
0080
03C0
07E0
1FC0
7F00
FE00
7800
2000
0000
0000
7800
7800
7800
7800
7800
7800
7800
7800
7800
7800
7800
7800
7800
7800
7800
7800
7800
7800
7800
7800
7800
7800
ENDCHAR
STARTCHAR 00EE
ENCODING 238
SWIDTH 248 0
DWIDTH 10 0
BBX 14 30 -3 0
BITMAP
07C0
0FE0
1FF0
3CF8
F87C
0000
0000
0000
0780
0780
0780
0780
0780
0780
0780
0780
0780
0780
0780
0780
0780
0780
0780
0780
0780
0780
0780
0780
0780
0780
ENDCHAR
STARTCHAR 00EF
ENCODING 239
SWIDTH 248 0
DWIDTH 10 0
BBX 10 30 0 0
BITMAP
F3C0
F3C0
F3C0
F3C0
F3C0
0000
0000
0000
1E00
1E00
1E00
1E00
1E00
1E00
1E00
1E00
1E00
1E00
1E00
1E00
1E00
1E00
1E00
1E00
1E00
1E00
1E00
1E00
1E00
1E00
ENDCHAR
STARTCHAR 00F0
ENCODING 240
SWIDTH 670 0
DWIDTH 27 0
BBX 23 31 2 -1
BITMAP
03C1C0
1FFFE0
03FFC0
03FE00
1FFF80
1F0FC0
0803E0
00FDE0
03FFF0
07FFF8
1FFFF8
1F83FC
3E00FC
7C007C
78003E
78003E
F0001E
F0001E
F0001E
F0001E
F0001E
F0001E
78003C
78003C
7C007C
3E00F8
1F83F0
1FFFF0
0FFFE0
03FF80
00FE00
ENDCHAR
STARTCHAR 00F1
ENCODING 241
SWIDTH 620 0
DWIDTH 25 0
BBX 19 29 3 0
BITMAP
0F8200
1FFF00
1FFF00
0CFE00
000000
000000
01F800
F3FE00
F7FF80
FFFF80
FE0FC0
FC07C0
F803E0
F801E0
F001E0
F001E0
F001E0
F001E0
F001E0
F001E0
F001E0
F001E0
F001E0
F001E0
F001E0
F001E0
F001E0
F001E0
F001E0
ENDCHAR
STARTCHAR 00F2
ENCODING 242
SWIDTH 670 0
DWIDTH 27 0
BBX 23 33 2 0
BITMAP
038000
07E000
07F800
01FE00
007F00
001E00
000C00
000000
000000
00FE00
03FF80
0FFFC0
1FFFF0
3F83F0
3E00F8
7C007C
78003C
78003E
F0001E
F0001E
F0001E
F0001E
F0001E
F0001E
78003C
78003C
7C007C
3E00F8
1F83F0
1FFFE0
0FFFC0
03FF80
00FE00
ENDCHAR
STARTCHAR 00F3
ENCODING 243
SWIDTH 670 0
DWIDTH 27 0
BBX 23 33 2 -1
BITMAP
000180
000380
000FC0
003F80
00FF00
00FC00
00F000
004000
000000
007E00
03FF80
07FFE0
1FFFF0
1F83F8
3E00F8
7C007C
78003C
78003E
F0001E
F0001E
F0001E
F0001E
F0001E
F0001E
78003C
78003C
7C007C
3E00F8
1F83F0
0FFFF0
07FFE0
03FF80
00FE00
ENDCHAR
STARTCHAR 00F4
ENCODING 244
SWIDTH 670 0
DWIDTH 27 0
BBX 23 31 2 -1
BITMAP
007C00
00FE00
01EF00
03C780
0783C0
000000
000000
00FE00
03FF80
07FFE0
1FFFF0
1F83F8
3E00F8
7C007C
78003C
78003E
F0001E
F0001E
F0001E
F0001E
F0001E
F0001E
78003C
78003C
7C007C
3E00F8
1F83F0
1FFFF0
0FFFC0
03FF80
00FE00
ENDCHAR
STARTCHAR 00F5
ENCODING 245
SWIDTH 670 0
DWIDTH 27 0
BBX 23 30 2 -1
BITMAP
03E180
0FFF80
07FFC0
033F80
000000
000000
00FE00
03FF80
0FFFE0
1FFFF0
3F83F0
3E00F8
7C007C
78003C
78003E
F0001E
F0001E
F0001E
F0001E
F0001E
F0001E
78003C
78003C
7C007C
3E00F8
1F83F0
1FFFE0
0FFFC0
03FF80
00FE00
ENDCHAR
STARTCHAR 00F6
ENCODING 246
SWIDTH 670 0
DWIDTH 27 0
BBX 23 31 2 -1
BITMAP
03CF00
03CF00
03CF00
03CF00
03CF00
000000
000000
00FE00
03FF80
0FFFC0
1FFFF0
3F03F0
3E00F8
7C007C
78003C
78003E
F0001E
F0001E
F0001E
F0001E
F0001E
F0001E
78003C
78003C
7C007C
3E00F8
3F83F0
1FFFE0
0FFFC0
03FF80
00FC00
ENDCHAR
STARTCHAR 00F7
ENCODING 247
SWIDTH 595 0
DWIDTH 24 0
BBX 20 20 2 0
BITMAP
00F000
00F000
00F000
00F000
000000
000000
000000
000000
FFFFF0
FFFFF0
FFFFF0
FFFFF0
000000
000000
000000
000000
00F000
00F000
00F000
00F000
ENDCHAR
STARTCHAR 00F8
ENCODING 248
SWIDTH 670 0
DWIDTH 27 0
BBX 23 28 2 -3
BITMAP
000020
000070
00FEF8
03FFF0
07FFF0
1FFFF0
1F83F8
3E07F8
7C07FC
780FBC
780F3E
F01E1E
F03E1E
F03C1E
F0781E
F0F81E
F0F01E
79E03C
79E03C
7FC07C
3FC0F8
1F83F0
1FFFF0
1FFFC0
1FFF80
3EFE00
3C0000
080000
ENDCHAR
STARTCHAR 00F9
ENCODING 249
SWIDTH 620 0
DWIDTH 25 0
BBX 19 33 3 0
BITMAP
0C0000
1F0000
1F8000
0FE000
03F800
00F000
007000
000000
000000
000000
F001E0
F001E0
F001E0
F001E0
F001E0
F001E0
F001E0
F001E0
F001E0
F001E0
F001E0
F001E0
F001E0
F001E0
F001E0
F003E0
F803E0
7C07E0
7E0FE0
3FFFE0
1FFFE0
0FFDE0
03F000
ENDCHAR
STARTCHAR 00FA
ENCODING 250
SWIDTH 620 0
DWIDTH 25 0
BBX 19 33 3 -1
BITMAP
000200
000F00
003F80
007F00
01FC00
03F800
01E000
018000
000000
000000
F001E0
F001E0
F001E0
F001E0
F001E0
F001E0
F001E0
F001E0
F001E0
F001E0
F001E0
F001E0
F001E0
F001E0
F001E0
F003E0
F803E0
7C07E0
7E0FE0
3FFFE0
1FFFE0
0FFDE0
03F000
ENDCHAR
STARTCHAR 00FB
ENCODING 251
SWIDTH 620 0
DWIDTH 25 0
BBX 19 31 3 -1
BITMAP
01F000
03F800
07FC00
0F1E00
1E0F00
000000
000000
000000
F001E0
F001E0
F001E0
F001E0
F001E0
F001E0
F001E0
F001E0
F001E0
F001E0
F001E0
F001E0
F001E0
F001E0
F001E0
F003E0
F803E0
7C07E0
7E0FE0
3FFFE0
1FFFE0
0FFDE0
03F000
ENDCHAR
STARTCHAR 00FC
ENCODING 252
SWIDTH 620 0
DWIDTH 25 0
BBX 19 31 3 -1
BITMAP
0F3C00
0F3C00
0F3C00
0F3C00
0F3C00
000000
000000
000000
F001E0
F001E0
F001E0
F001E0
F001E0
F001E0
F001E0
F001E0
F001E0
F001E0
F001E0
F001E0
F001E0
F001E0
F001E0
F003E0
F803E0
7807E0
7E0FE0
3FFFE0
3FFFE0
0FF9E0
07E000
ENDCHAR
STARTCHAR 00FD
ENCODING 253
SWIDTH 571 0
DWIDTH 23 0
BBX 22 39 0 -7
BITMAP
000080
0003C0
000FE0
003FC0
007F00
00FC00
00F000
004000
000000
000000
F8003C
780038
780078
7C0078
3C00F0
3E00F0
1E00E0
1E01E0
1F01C0
0F03C0
0F83C0
078780
078780
03C700
03CF00
03EF00
01FE00
01FE00
00FC00
00FC00
00F800
007800
00F800
00F000
01F000
01E000
01E000
03E000
03C000
ENDCHAR
STARTCHAR 00FE
ENCODING 254
SWIDTH 695 0
DWIDTH 28 0
BBX 22 36 3 -7
BITMAP
F00000
F00000
F00000
F00000
F00000
F00000
F0FE00
F3FF80
F7FFC0
FFFFE0
FF07F0
FE01F0
FC00F8
F80078
F8007C
F0003C
F0003C
F0003C
F0003C
F0003C
F0003C
F8007C
F80078
FC00F8
FE01F0
FF87F0
FFFFE0
F7FFC0
F3FF80
F0FC00
F00000
F00000
F00000
F00000
F00000
F00000
ENDCHAR
STARTCHAR 00FF
ENCODING 255
SWIDTH 571 0
DWIDTH 23 0
BBX 22 37 0 -7
BITMAP
03CF00
03CF00
03CF00
03CF00
03CF00
000000
000000
000000
F8007C
780078
7800F8
7C00F8
3C00F0
3E01F0
1E01E0
1E01E0
1F03C0
0F03C0
0F07C0
078780
078780
03CF00
03CF00
03DE00
01FE00
01FE00
00FC00
00FC00
00F800
007800
00F800
00F000
01F000
01E000
01E000
03C000
03C000
ENDCHAR
STARTCHAR 0131
ENCODING 305
SWIDTH 248 0
DWIDTH 10 0
BBX 4 22 3 0
BITMAP
F0
F0
F0
F0
F0
F0
F0
F0
F0
F0
F0
F0
F0
F0
F0
F0
F0
F0
F0
F0
F0
F0
ENDCHAR
STARTCHAR 0141
ENCODING 321
SWIDTH 446 0
DWIDTH 18 0
BBX 17 29 0 0
BITMAP
1E0000
1E0000
1E0000
1E0000
1E0000
1E0000
1E0000
1E1000
1E7000
1EF000
1FF000
1FE000
1FC000
3F0000
7E0000
FE0000
FE0000
FE0000
9E0000
1E0000
1E0000
1E0000
1E0000
1E0000
1E0000
1FFF80
1FFF80
1FFF80
1FFF80
ENDCHAR
STARTCHAR 0142
ENCODING 322
SWIDTH 273 0
DWIDTH 11 0
BBX 10 29 1 0
BITMAP
1E00
1E00
1E00
1E00
1E00
1E00
1E00
1E00
1E40
1EC0
1FC0
1FC0
1F80
3F00
FE00
FE00
FE00
DE00
1E00
1E00
1E00
1E00
1E00
1E00
1E00
1E00
1E00
1E00
1E00
ENDCHAR
STARTCHAR 0152
ENCODING 338
SWIDTH 1092 0
DWIDTH 44 0
BBX 39 31 2 -1
BITMAP
001FC00000
00FFF87FFE
01FFFE7FFE
07FFFF7FFE
0FE03F7FFE
1F800FF800
1F0007F800
3E0003F800
3C0001F800
780000F800
780000F800
780000F800
F000007800
F000007FFE
F000007FFE
F000007FFE
F000007FFE
F000007800
F000007800
780000F800
780000F800
7C0000F800
3C0001F800
3E0003F800
1F0007F800
1F800FF800
0FE03F7FFE
07FFFF7FFE
03FFFC7FFE
00FFF87FFE
001FC00000
ENDCHAR
STARTCHAR 0153
ENCODING 339
SWIDTH 1142 0
DWIDTH 46 0
BBX 42 24 2 -1
BITMAP
00FE001FC000
03FFC07FF000
07FFE0FFFC00
0FFFF1FFFE00
1F83FBF07F00
3E00FFC01F00
7C007F800F80
78003F800780
78001F0007C0
F0001F0003C0
F0001F0003C0
F0001FFFFFC0
F0001FFFFFC0
F0001FFFFFC0
F0001F000000
78001F000000
78003F800780
7C007F800F80
3E00FBE01F00
1F83FBF03F00
1FFFF1FFFE00
07FFE0FFFC00
03FF807FF000
00FE000FC000
ENDCHAR
STARTCHAR 0160
ENCODING 352
SWIDTH 496 0
DWIDTH 20 0
BBX 18 39 1 -1
BITMAP
3E0F80
1F1F00
0FBE00
07FC00
03F800
01F000
000000
000000
03F800
07FE00
1FFF00
1FFF80
3E0F80
3C07C0
7803C0
7803C0
780000
780000
7C0000
3E0000
3FC000
1FF800
0FFC00
07FF00
00FF80
003F80
000FC0
0007C0
0003C0
0003C0
F003C0
F003C0
F803C0
7C0780
7E0F80
3FFF00
1FFF00
0FFC00
03F000
ENDCHAR
STARTCHAR 0161
ENCODING 353
SWIDTH 422 0
DWIDTH 17 0
BBX 15 32 1 -1
BITMAP
F83E
7C7C
3EF8
1FF0
0FE0
07C0
0000
0000
07C0
0FF0
1FF8
3FF8
7C7C
783C
783C
7800
7C00
3F80
3FE0
1FF8
07FC
01FC
003E
001E
F01E
F01E
F81E
7C3E
7FFC
3FF8
1FF0
07C0
ENDCHAR
STARTCHAR 0178
ENCODING 376
SWIDTH 595 0
DWIDTH 24 0
BBX 22 37 1 0
BITMAP
03CF00
03CF00
03CF00
03CF00
03CF00
000000
000000
000000
F8007C
780078
7C00F8
3C00F0
3E01F0
1E01E0
1F03E0
0F03C0
0F87C0
078780
07CF80
03CF00
03EF00
01FE00
01FE00
01FC00
00FC00
00F800
007800
007800
007800
007800
007800
007800
007800
007800
007800
007800
007800
ENDCHAR
STARTCHAR 017D
ENCODING 381
SWIDTH 471 0
DWIDTH 19 0
BBX 18 38 0 0
BITMAP
3E0F80
1F1F00
0FBE00
07FC00
03F800
01F000
000000
000000
000000
7FFF80
7FFF80
7FFF80
7FFF80
000F80
000F00
001F00
001E00
003C00
007C00
007800
00F800
00F000
01E000
03E000
03C000
07C000
078000
0F8000
1F0000
1E0000
3E0000
3C0000
7C0000
F80000
FFFFC0
FFFFC0
FFFFC0
FFFFC0
ENDCHAR
STARTCHAR 017E
ENCODING 382
SWIDTH 397 0
DWIDTH 16 0
BBX 16 31 0 0
BITMAP
7C1F
3E3E
1F7C
0FF8
07F0
03E0
0000
0000
0000
7FFE
7FFE
7FFE
7FFE
003E
007C
0078
00F8
01F0
01E0
03E0
07C0
0F80
0F00
1F00
3E00
3C00
7C00
FFFF
FFFF
FFFF
FFFF
ENDCHAR
STARTCHAR 0192
ENCODING 402
SWIDTH 546 0
DWIDTH 22 0
BBX 20 39 1 -5
BITMAP
0000F0
0003F0
0007E0
0007C0
000F00
000F00
001E00
001E00
001E00
01FFC0
01FFC0
03FFC0
03FFC0
003C00
003C00
003800
007800
007800
007800
007800
007800
007000
00F000
00F000
00F000
00F000
00F000
01E000
01E000
01E000
01E000
01E000
03C000
07C000
0F8000
7F8000
FF0000
FE0000
F80000
ENDCHAR
STARTCHAR 02C6
ENCODING 710
SWIDTH 546 0
DWIDTH 22 0
BBX 13 5 4 25
BITMAP
0F80
1FC0
3DE0
78F0
F078
ENDCHAR
STARTCHAR 02C7
ENCODING 711
SWIDTH 546 0
DWIDTH 22 0
BBX 15 6 3 25
BITMAP
F83E
7C7C
3EF8
1FF0
0FE0
07C0
ENDCHAR
STARTCHAR 02D8
ENCODING 728
SWIDTH 546 0
DWIDTH 22 0
BBX 15 5 3 25
BITMAP
F01E
783C
7FFC
3FF8
0FE0
ENDCHAR
STARTCHAR 02D9
ENCODING 729
SWIDTH 546 0
DWIDTH 22 0
BBX 4 5 9 25
BITMAP
F0
F0
F0
F0
F0
ENDCHAR
STARTCHAR 02DA
ENCODING 730
SWIDTH 546 0
DWIDTH 22 0
BBX 8 9 7 24
BITMAP
3C
7E
E7
C3
C3
C3
E7
7E
3C
ENDCHAR
STARTCHAR 02DB
ENCODING 731
SWIDTH 546 0
DWIDTH 22 0
BBX 7 8 7 -7
BITMAP
38
70
E0
E0
F0
FE
7E
3E
ENDCHAR
STARTCHAR 02DC
ENCODING 732
SWIDTH 546 0
DWIDTH 22 0
BBX 14 4 4 24
BITMAP
7C18
FFF8
FFFC
63F8
ENDCHAR
STARTCHAR 02DD
ENCODING 733
SWIDTH 546 0
DWIDTH 22 0
BBX 15 5 4 25
BITMAP
0F9E
1F3C
3E78
7CF0
F9E0
ENDCHAR
STARTCHAR 2013
ENCODING 8211
SWIDTH 496 0
DWIDTH 20 0
BBX 17 4 1 9
BITMAP
FFFF80
FFFF80
FFFF80
FFFF80
ENDCHAR
STARTCHAR 2014
ENCODING 8212
SWIDTH 993 0
DWIDTH 40 0
BBX 37 4 1 9
BITMAP
FFFFFFFFF8
FFFFFFFFF8
FFFFFFFFF8
FFFFFFFFF8
ENDCHAR
STARTCHAR 2018
ENCODING 8216
SWIDTH 273 0
DWIDTH 11 0
BBX 4 10 3 19
BITMAP
10
70
F0
E0
E0
F0
F0
F0
F0
F0
ENDCHAR
STARTCHAR 2019
ENCODING 8217
SWIDTH 273 0
DWIDTH 11 0
BBX 4 10 3 19
BITMAP
F0
F0
F0
F0
F0
70
70
E0
E0
80
ENDCHAR
STARTCHAR 201A
ENCODING 8218
SWIDTH 273 0
DWIDTH 11 0
BBX 4 10 3 -5
BITMAP
F0
F0
F0
F0
F0
70
70
F0
E0
80
ENDCHAR
STARTCHAR 201C
ENCODING 8220
SWIDTH 422 0
DWIDTH 17 0
BBX 10 10 3 19
BITMAP
1040
71C0
F3C0
E380
E380
F3C0
F3C0
F3C0
F3C0
F3C0
ENDCHAR
STARTCHAR 201D
ENCODING 8221
SWIDTH 422 0
DWIDTH 17 0
BBX 10 10 3 19
BITMAP
F3C0
F3C0
F3C0
F3C0
F3C0
71C0
71C0
E380
E380
8200
ENDCHAR
STARTCHAR 201E
ENCODING 8222
SWIDTH 422 0
DWIDTH 17 0
BBX 10 10 3 -5
BITMAP
F3C0
F3C0
F3C0
F3C0
F3C0
71C0
71C0
F3C0
E380
8200
ENDCHAR
STARTCHAR 2020
ENCODING 8224
SWIDTH 571 0
DWIDTH 23 0
BBX 18 38 2 -9
BITMAP
01E000
01E000
01E000
01E000
01E000
01E000
01E000
FFFFC0
FFFFC0
FFFFC0
FFFFC0
01E000
01E000
01E000
01E000
01E000
01E000
01E000
01E000
01E000
01E000
01E000
01E000
01E000
01E000
01E000
01E000
01E000
01E000
01E000
01E000
01E000
01E000
01E000
01E000
01E000
01E000
01E000
ENDCHAR
STARTCHAR 2021
ENCODING 8225
SWIDTH 571 0
DWIDTH 23 0
BBX 18 38 2 -10
BITMAP
01E000
01E000
01E000
01E000
01E000
01E000
FFFFC0
FFFFC0
FFFFC0
FFFFC0
01E000
01E000
01E000
01E000
01E000
01E000
01E000
01E000
01E000
01E000
01E000
01E000
01E000
01E000
FFFFC0
FFFFC0
FFFFC0
FFFFC0
01E000
01E000
01E000
01E000
01E000
01E000
01E000
01E000
01E000
01E000
ENDCHAR
STARTCHAR 2022
ENCODING 8226
SWIDTH 595 0
DWIDTH 24 0
BBX 12 12 6 9
BITMAP
0F80
3FC0
7FE0
7FF0
FFF0
FFF0
FFF0
FFF0
7FE0
7FE0
3FC0
0F00
ENDCHAR
STARTCHAR 2026
ENCODING 8230
SWIDTH 993 0
DWIDTH 40 0
BBX 30 5 5 0
BITMAP
F007803C
F007803C
F007803C
F007803C
F007803C
ENDCHAR
STARTCHAR 2030
ENCODING 8240
SWIDTH 1216 0
DWIDTH 49 0
BBX 45 31 2 -1
BITMAP
07C001000000
1FF006000000
3FF806000000
7FFC0C000000
7C7E08000000
F01E18000000
F01E10000000
F01E30000000
F81E60000000
7C7E60000000
7FFCC0000000
3FF8C0000000
1FF180000000
07C180000000
000300000000
000600000000
00060F801F00
000C3FC07FC0
000C7FE0FFE0
0018FFF1FFF0
0038F0F1F1F0
0031F0FBE0F8
0071E07BC078
0061E07BC078
00E1E07BC078
00C1F07BE0F8
01C0F8F1F1F0
0380FFF1FFF0
03007FE0FFE0
07003FC07FC0
00000F001F00
ENDCHAR
STARTCHAR 2039
ENCODING 8249
SWIDTH 198 0
DWIDTH 8 0
BBX 5 13 1 5
BITMAP
08
18
38
78
F0
E0
C0
E0
F0
78
38
18
08
ENDCHAR
STARTCHAR 203A
ENCODING 8250
SWIDTH 198 0
DWIDTH 8 0
BBX 5 13 1 5
BITMAP
80
C0
E0
F0
78
38
18
38
78
F0
E0
C0
80
ENDCHAR
STARTCHAR 2044
ENCODING 8260
SWIDTH 198 0
DWIDTH 8 0
BBX 15 29 -4 0
BITMAP
000E
000C
001C
001C
0038
0038
0070
0070
0060
00E0
00E0
01C0
01C0
0380
0380
0300
0700
0700
0E00
0E00
0C00
1C00
1C00
3800
3800
7000
7000
6000
E000
ENDCHAR
STARTCHAR 2122
ENCODING 8482
SWIDTH 993 0
DWIDTH 40 0
BBX 36 17 0 11
BITMAP
FFFC7E03F0
FFFC7E03F0
FFFC7F07F0
07807F07F0
07807F07F0
07807F8FF0
07807B8EF0
07807B8EF0
07807BDEF0
078079DCF0
078079DCF0
078079FCF0
078078F8F0
078078F8F0
078078F8F0
07807870F0
07807870F0
ENDCHAR
STARTCHAR 2212
ENCODING 8722
SWIDTH 595 0
DWIDTH 24 0
BBX 20 4 2 8
BITMAP
FFFFF0
FFFFF0
FFFFF0
FFFFF0
ENDCHAR
STARTCHAR FB01
ENCODING 64257
SWIDTH 496 0
DWIDTH 20 0
BBX 15 29 1 0
BITMAP
039E
0F9E
1F9E
3F9E
3E1E
3C00
3C00
FFFE
FFFE
FFFE
FFFE
3C1E
3C1E
3C1E
3C1E
3C1E
3C1E
3C1E
3C1E
3C1E
3C1E
3C1E
3C1E
3C1E
3C1E
3C1E
3C1E
3C1E
3C1E
ENDCHAR
STARTCHAR FB02
ENCODING 64258
SWIDTH 496 0
DWIDTH 20 0
BBX 15 29 1 0
BITMAP
039E
0F9E
1F9E
3F9E
3E1E
3C1E
3C1E
FFFE
FFFE
FFFE
FFFE
3C1E
3C1E
3C1E
3C1E
3C1E
3C1E
3C1E
3C1E
3C1E
3C1E
3C1E
3C1E
3C1E
3C1E
3C1E
3C1E
3C1E
3C1E
ENDCHAR
ENDFONT
